opsz144_wght100_wdth50.ufo
<glyph name="zero" format="2">
	<unicode hex="0030"/>
	<advance width="1192"/>
	<outline>
		<contour>
			<point x="107.625004844" y="860.5694580078" type="qcurve" smooth="yes"/>
			<point x="185.449589805" y="1162.4017944336"/>
			<point x="598.2830810547" y="1557.79296875"/>
			<point x="811.5971069336" y="1538.98046875" type="qcurve" smooth="yes"/>
			<point x="1009.9976806641" y="1522.16796875"/>
			<point x="1191.1758471292" y="1072.4361572266"/>
			<point x="1109.1637621683" y="743.3210449219" type="qcurve" smooth="yes"/>
			<point x="1031.406254844" y="429.9022827148"/>
			<point x="612.5181884766" y="-30.9283447266"/>
			<point x="403.4456176758" y="-11" type="qcurve" smooth="yes"/>
			<point x="195.4462890625" y="5.9283447266"/>
			<point x="20.5976000589" y="507.5495605469"/>
		</contour>
		<contour>
			<point x="288.955078125" y="848.8224487305" type="qcurve" smooth="yes"/>
			<point x="219.7576904297" y="551.9182739258"/>
			<point x="281.4827270508" y="115.001953125"/>
			<point x="421.547668457" y="102.001953125" type="qcurve" smooth="yes"/>
			<point x="579.9790649414" y="87.001953125"/>
			<point x="861.2458496094" y="454.647277832"/>
			<point x="931.3916015625" y="761.7159423828" type="qcurve" smooth="yes"/>
			<point x="1005.010559082" y="1077.0209960938"/>
			<point x="918.9437866211" y="1402.6706542969"/>
			<point x="778.8453979492" y="1416.6706542969" type="qcurve" smooth="yes"/>
			<point x="622.2807006836" y="1431.6706542969"/>
			<point x="356.0239257812" y="1136.8911132812"/>
		</contour>
	</outline>
</glyph>
<glyph name="one" format="2">
	<unicode hex="0031"/>
	<advance width="668"/>
	<outline>
		<contour>
			<point x="131.7380371094" y="-11.5383300781" type="line"/>
			<point x="149.9371337891" y="41.6589355469"/>
			<point x="192.9066162109" y="125.79296875"/>
			<point x="224.9632568359" y="271.435546875" type="qcurve" smooth="yes"/>
			<point x="399.5316162109" y="1063.9306640625" type="line"/>
			<point x="462.5916748047" y="1327.4281005859" type="line"/>
			<point x="167.3093261719" y="1167.0692138672" type="line"/>
			<point x="129.0778808594" y="1273.4556884766" type="line"/>
			<point x="591.4396972656" y="1541.75390625" type="line"/>
			<point x="646.9020996094" y="1503.2917480469" type="line"/>
			<point x="651.2686767578" y="1480.9682617188"/>
			<point x="640.4567871094" y="1372.2950439453"/>
			<point x="627.1926269531" y="1333.3167724609" type="qcurve" smooth="yes"/>
			<point x="484.2041015625" y="727.3671875" type="line"/>
			<point x="363.5384521484" y="125.8936767578" type="line"/>
			<point x="194.2006835938" y="-41.3850097656" type="line"/>
		</contour>
	</outline>
</glyph>
<glyph name="two" format="2">
	<unicode hex="0032"/>
	<advance width="925"/>
	<outline>
		<contour>
			<point x="-89.2904052734" y="8.6796875" type="qcurve"/>
			<point x="-115.1610107422" y="53.0771484375" type="line"/>
			<point x="-9.6423339844" y="166.9234619141" type="line" smooth="yes"/>
			<point x="361.1576538086" y="552.5897216797"/>
			<point x="675.8790283203" y="995.193359375"/>
			<point x="694.5983886719" y="1204.505859375" type="qcurve" smooth="yes"/>
			<point x="713.3682250977" y="1300.8383178711"/>
			<point x="624.0417480469" y="1390.9404907227"/>
			<point x="560.5328979492" y="1390.9404907227" type="qcurve" smooth="yes"/>
			<point x="478.5085449219" y="1390.9404907227"/>
			<point x="313.1731567383" y="1310.7692871094"/>
			<point x="238.0980834961" y="1233.8186035156" type="qcurve"/>
			<point x="158.4733886719" y="1299.7551269531" type="line"/>
			<point x="225.6206665039" y="1392.4711914062"/>
			<point x="451.7764892578" y="1542.263671875"/>
			<point x="585.0384521484" y="1541.263671875" type="qcurve" smooth="yes"/>
			<point x="755.7142944336" y="1541.263671875"/>
			<point x="908.3071899414" y="1369.9887695312"/>
			<point x="888.6760253906" y="1216.1181640625" type="qcurve" smooth="yes"/>
			<point x="867.0661621094" y="1014.2993164062"/>
			<point x="522.4024658203" y="536.4053344727"/>
			<point x="280.1605834961" y="283.8801879883" type="qcurve"/>
			<point x="270.6666870117" y="294.7899169922" type="line"/>
			<point x="244.2924804688" y="270.0347290039"/>
			<point x="184.2611694336" y="276.2501220703"/>
			<point x="168.23046875" y="282.4904785156" type="qcurve"/>
			<point x="290.7504882812" y="264.4144897461"/>
			<point x="506.78515625" y="222.9170532227"/>
			<point x="601.1881103516" y="201.2559204102" type="qcurve"/>
			<point x="686.0159912109" y="359.3494873047" type="line"/>
			<point x="767.9381103516" y="342.9594726562" type="line"/>
			<point x="633.512878418" y="-14.5861816406" type="line"/>
			<point x="456.674621582" y="52.5009765625"/>
			<point x="236.2286376953" y="107.6507568359"/>
			<point x="141.6521606445" y="106.8974609375" type="qcurve" smooth="yes"/>
			<point x="71.7674560547" y="106.1724853516"/>
			<point x="-38.0848999023" y="59.302734375"/>
		</contour>
	</outline>
</glyph>
<glyph name="three" format="2">
	<unicode hex="0033"/>
	<advance width="917"/>
	<outline>
		<contour>
			<point x="-83.982421875" y="174.6268310547" type="qcurve"/>
			<point x="-78.982421875" y="224.5915527344"/>
			<point x="36.0762329102" y="312.8659667969"/>
			<point x="98.7810058594" y="310.6448364258" type="qcurve"/>
			<point x="121.6530151367" y="307.413269043" type="line"/>
			<point x="108.930480957" y="271.2716674805"/>
			<point x="101.6552734375" y="239.1764526367"/>
			<point x="98.5783691406" y="206.9782104492" type="qcurve" smooth="yes"/>
			<point x="90.1362915039" y="121.9013671875"/>
			<point x="161.2987060547" y="89.1352539062"/>
			<point x="220.3414916992" y="89.1352539062" type="qcurve" smooth="yes"/>
			<point x="372.5210571289" y="89.1352539062"/>
			<point x="594.9251098633" y="253.3316040039"/>
			<point x="635.6705322266" y="432.6141967773" type="qcurve" smooth="yes"/>
			<point x="675.3671875" y="615.660949707"/>
			<point x="563.7215576172" y="810.1680908203"/>
			<point x="403.6750488281" y="811.723449707" type="qcurve" smooth="yes"/>
			<point x="307.1278686523" y="812.3352661133" type="line"/>
			<point x="318.9547119141" y="916.8267211914" type="line"/>
			<point x="385.9973144531" y="914.0857543945" type="line" smooth="yes"/>
			<point x="558.3048706055" y="906.0556030273"/>
			<point x="708.9229125977" y="1061.6599121094"/>
			<point x="735.4808349609" y="1207.3452758789" type="qcurve" smooth="yes"/>
			<point x="757.9229125977" y="1303.7165527344"/>
			<point x="708.3968505859" y="1393.5524902344"/>
			<point x="614.4573974609" y="1396.5524902344" type="qcurve" smooth="yes"/>
			<point x="497.4774780273" y="1400.5524902344"/>
			<point x="350.1425170898" y="1310.3629760742"/>
			<point x="318.1410522461" y="1249.0267944336" type="qcurve"/>
			<point x="257.4100341797" y="1317.6103515625" type="line"/>
			<point x="309.9699707031" y="1409.8216552734"/>
			<point x="521.5858154297" y="1544.1611328125"/>
			<point x="679.217590332" y="1543.1611328125" type="qcurve" smooth="yes"/>
			<point x="808.509765625" y="1543.1611328125"/>
			<point x="954.8055419922" y="1387.9019165039"/>
			<point x="931.8055419922" y="1243.5511474609" type="qcurve" smooth="yes"/>
			<point x="906.8055419922" y="1110.4315795898"/>
			<point x="783.3972167969" y="906.647644043"/>
			<point x="622.1614990234" y="873.6287231445" type="qcurve"/>
			<point x="619.6035766602" y="870.5154418945" type="line"/>
			<point x="735.0938720703" y="841.6848754883"/>
			<point x="857.1126708984" y="605.3298950195"/>
			<point x="824.1126708984" y="440.9010620117" type="qcurve" smooth="yes"/>
			<point x="787.7864379883" y="257.784362793"/>
			<point x="410.3352050781" y="-14"/>
			<point x="154.2852172852" y="-13" type="qcurve" smooth="yes"/>
			<point x="40.599609375" y="-12"/>
			<point x="-92.982421875" y="92.9883422852"/>
		</contour>
	</outline>
</glyph>
<glyph name="four" format="2">
	<unicode hex="0034"/>
	<advance width="982"/>
	<outline>
		<contour>
			<point x="-1.0620117188" y="469.0903320312" type="line"/>
			<point x="-4.2158203125" y="541.0146484375" type="line"/>
			<point x="831.391784668" y="1536.52734375" type="line"/>
			<point x="906.1576538086" y="1508.1444091797" type="line"/>
			<point x="911.0342407227" y="1499.4477539062" type="line"/>
			<point x="693.8107299805" y="532.552734375" type="line"/>
			<point x="688.8107299805" y="505.552734375" type="line"/>
			<point x="605.2715454102" y="96.6547851562" type="line"/>
			<point x="583.0369262695" y="77.3598632812" type="line"/>
			<point x="407.5051879883" y="-41.5063476562" type="line"/>
			<point x="393.8085327148" y="-22.1130371094" type="line"/>
			<point x="520.0759887695" y="508.552734375" type="line"/>
			<point x="528.0759887695" y="533.552734375" type="line"/>
			<point x="693.4230957031" y="1277.4377441406" type="line"/>
			<point x="197.0424194336" y="598.2458496094" type="line"/>
			<point x="202.8886108398" y="583.6303710938" type="line"/>
			<point x="627.155456543" y="585.1689453125" type="line"/>
			<point x="860.8012084961" y="582.2458496094" type="line"/>
			<point x="834.9547729492" y="460.0903320312" type="line"/>
			<point x="604.3090209961" y="461.5517578125" type="line"/>
		</contour>
	</outline>
</glyph>
<glyph name="five" format="2">
	<unicode hex="0035"/>
	<advance width="825"/>
	<outline>
		<contour>
			<point x="-146.1201171875" y="201.2001953125" type="qcurve" smooth="yes"/>
			<point x="-142.1201171875" y="264.1961669922"/>
			<point x="-70.7161254883" y="307.1944580078"/>
			<point x="-34.9609375" y="311.5161132812" type="qcurve"/>
			<point x="-17.3876953125" y="308.6162109375" type="line"/>
			<point x="-21.814453125" y="153.3291015625" type="line" smooth="yes"/>
			<point x="30.7945556641" y="153.8158569336"/>
			<point x="91.388671875" y="94.4836425781"/>
			<point x="202.4200439453" y="94.4836425781" type="qcurve" smooth="yes"/>
			<point x="395.3717041016" y="95.4836425781"/>
			<point x="554.3379516602" y="311.5661010742"/>
			<point x="581.4315185547" y="531.724609375" type="qcurve" smooth="yes"/>
			<point x="609.0830078125" y="724.5735473633"/>
			<point x="497.6138916016" y="918.2172241211"/>
			<point x="270.7857666016" y="833.210144043" type="qcurve" smooth="yes"/>
			<point x="157.7524414062" y="802.4013061523" type="line"/>
			<point x="125.2963256836" y="868.1293945312" type="line"/>
			<point x="261.8860473633" y="1473.3275146484" type="line"/>
			<point x="307.6469726562" y="1527.8955078125" type="line"/>
			<point x="919.7005004883" y="1527.8955078125" type="line"/>
			<point x="882.4974975586" y="1327.1607666016" type="line"/>
			<point x="350.465637207" y="1327.1607666016" type="line"/>
			<point x="335.8923950195" y="1311.0859375" type="line"/>
			<point x="317.7842407227" y="1204.9033203125"/>
			<point x="271.0194702148" y="983.8256225586"/>
			<point x="238.7561645508" y="914.5596923828" type="qcurve"/>
			<point x="381.520690918" y="957.9805908203" type="line"/>
			<point x="606.1216430664" y="1020.7274169922"/>
			<point x="803.1497192383" y="777.8297729492"/>
			<point x="774.4027099609" y="535.9033203125" type="qcurve" smooth="yes"/>
			<point x="749.8873901367" y="297.9110107422"/>
			<point x="413.6791992188" y="-13"/>
			<point x="156.5387573242" y="-14" type="qcurve" smooth="yes"/>
			<point x="0.7430419922" y="-14"/>
			<point x="-153.1201171875" y="114.8408203125"/>
		</contour>
	</outline>
</glyph>
<glyph name="six" format="2">
	<unicode hex="0036"/>
	<advance width="1119"/>
	<outline>
		<contour>
			<point x="33.3262329102" y="542.5612182617" type="qcurve" smooth="yes"/>
			<point x="78.7133789062" y="918.2646484375"/>
			<point x="668.4187011719" y="1482.1120605469"/>
			<point x="1028.2646484375" y="1571.5833740234" type="qcurve"/>
			<point x="1064.6369018555" y="1474.4692382812" type="line"/>
			<point x="839.8876953125" y="1398.0610961914"/>
			<point x="232.6989746094" y="912.7092285156"/>
			<point x="206.6600952148" y="495.682800293" type="qcurve" smooth="yes"/>
			<point x="175.0133666992" y="261.19140625"/>
			<point x="315.3609008789" y="99.5032348633"/>
			<point x="471.9785766602" y="99.6419677734" type="qcurve" smooth="yes"/>
			<point x="617.6050415039" y="98.5261230469"/>
			<point x="803.5002441406" y="350.7562255859"/>
			<point x="806.2062988281" y="598.9598388672" type="qcurve" smooth="yes"/>
			<point x="815.9421386719" y="664.9353027344"/>
			<point x="727.9037475586" y="791.1405029297"/>
			<point x="600.6104736328" y="793.698425293" type="qcurve" smooth="yes"/>
			<point x="572.7649536133" y="795.2563476562"/>
			<point x="513.01171875" y="792.9769897461"/>
			<point x="475.1068725586" y="777.5848999023" type="qcurve"/>
			<point x="455.7283935547" y="846.383972168" type="line"/>
			<point x="494.1688842773" y="882.6215820312"/>
			<point x="579.7680053711" y="939.7286987305"/>
			<point x="649.3335571289" y="939.1707763672" type="qcurve" smooth="yes"/>
			<point x="812.6431884766" y="938.0549316406"/>
			<point x="1001.1889648438" y="721.7116088867"/>
			<point x="984.2956542969" y="588.3792114258" type="qcurve" smooth="yes"/>
			<point x="965.3535766602" y="305.1381835938"/>
			<point x="624.0252685547" y="-13.8612670898"/>
			<point x="415.9928588867" y="-13.3033447266" type="qcurve" smooth="yes"/>
			<point x="214.4882202148" y="-13.4420776367"/>
			<point x="-1.0792236328" y="278.0880737305"/>
		</contour>
	</outline>
</glyph>
<glyph name="seven" format="2">
	<unicode hex="0037"/>
	<advance width="933"/>
	<outline>
		<contour>
			<point x="35.4182739258" y="1169.7194213867" type="line"/>
			<point x="159.1002807617" y="1527.9521484375" type="line"/>
			<point x="931.4170532227" y="1527.9521484375" type="line"/>
			<point x="944.9955444336" y="1484.3361816406" type="line"/>
			<point x="774.1431274414" y="1196.7169799805"/>
			<point x="357.3718261719" y="403.7003173828"/>
			<point x="250.1047973633" y="44.5524902344" type="qcurve"/>
			<point x="81.7327270508" y="-34" type="line"/>
			<point x="42.7048950195" y="48.0692138672" type="line"/>
			<point x="195.6706542969" y="399.6843261719"/>
			<point x="665.5552978516" y="1193.3356323242"/>
			<point x="704.0535888672" y="1328.7906494141" type="qcurve"/>
			<point x="695.3798217773" y="1339.7906494141" type="line"/>
			<point x="221.6957397461" y="1339.7906494141" type="line"/>
			<point x="138.4185180664" y="1170.1465454102" type="line"/>
		</contour>
	</outline>
</glyph>
<glyph name="eight" format="2">
	<unicode hex="0038"/>
	<advance width="946"/>
	<outline>
		<contour>
			<point x="430.3843994141" y="862.664855957" type="qcurve"/>
			<point x="506.6115722656" y="814.2752685547" type="line"/>
			<point x="336.0103759766" y="723.3444213867"/>
			<point x="115.3689575195" y="463.539855957"/>
			<point x="102.9198608398" y="309.4020385742" type="qcurve" smooth="yes"/>
			<point x="93.7969970703" y="223.4530639648"/>
			<point x="195.5709838867" y="104.5411987305"/>
			<point x="326.92578125" y="104.0991210938" type="qcurve" smooth="yes"/>
			<point x="489.4686279297" y="104.2149658203"/>
			<point x="696.5227050781" y="271.2353515625"/>
			<point x="705.9718017578" y="405.9409179688" type="qcurve" smooth="yes"/>
			<point x="714.4208984375" y="511.4038085938"/>
			<point x="558.7018432617" y="705.7952880859"/>
			<point x="493.160949707" y="781.0642089844" type="qcurve" smooth="yes"/>
			<point x="420.9279174805" y="870.1419067383"/>
			<point x="230.1090087891" y="1048.9862670898"/>
			<point x="234.9505615234" y="1189.2911987305" type="qcurve" smooth="yes"/>
			<point x="243.4658813477" y="1345.8044433594"/>
			<point x="521.9658203125" y="1547.9830322266"/>
			<point x="704.9049072266" y="1548.0988769531" type="qcurve" smooth="yes"/>
			<point x="857.1967773438" y="1549.2147216797"/>
			<point x="1037.4029541016" y="1387.8185424805"/>
			<point x="1030.0980224609" y="1271.034362793" type="qcurve" smooth="yes"/>
			<point x="1023.0814208984" y="1165.1564331055"/>
			<point x="809.0343017578" y="948.9368896484"/>
			<point x="623.977722168" y="857.7470092773" type="qcurve"/>
			<point x="543.6960449219" y="907.568359375" type="line"/>
			<point x="686.7891845703" y="978.9193115234"/>
			<point x="842.4508666992" y="1194.7099609375"/>
			<point x="851.5454101562" y="1254.2507324219" type="qcurve" smooth="yes"/>
			<point x="860.7841186523" y="1335.1138916016"/>
			<point x="787.5266723633" y="1427.947265625"/>
			<point x="709.6742553711" y="1429.947265625" type="qcurve" smooth="yes"/>
			<point x="563.089050293" y="1430.3893432617"/>
			<point x="414.1911010742" y="1310.9618530273"/>
			<point x="402.5386352539" y="1213.1775512695" type="qcurve" smooth="yes"/>
			<point x="392.4440917969" y="1137.0464477539"/>
			<point x="523.6763305664" y="995.5345458984"/>
			<point x="629.2939453125" y="896.0078125" type="qcurve" smooth="yes"/>
			<point x="731.7331542969" y="801.8260498047"/>
			<point x="889.1158447266" y="579.1369018555"/>
			<point x="882.8701171875" y="439.5944213867" type="qcurve" smooth="yes"/>
			<point x="875.5298461914" y="257.854309082"/>
			<point x="533.2954711914" y="-7.8841552734"/>
			<point x="354.3396606445" y="-8" type="qcurve" smooth="yes"/>
			<point x="147.7232055664" y="-7.5579223633"/>
			<point x="-89.5045776367" y="173.6397094727"/>
			<point x="-84.9609375" y="301.3867797852" type="qcurve" smooth="yes"/>
			<point x="-79.5331420898" y="474.6487426758"/>
			<point x="216.1759033203" y="773.344543457"/>
		</contour>
	</outline>
</glyph>
<glyph name="nine" format="2">
	<unicode hex="0039"/>
	<advance width="1136"/>
	<outline>
		<contour>
			<point x="56.6872558594" y="-31.0820922852" type="qcurve"/>
			<point x="23.4049682617" y="66.032043457" type="line"/>
			<point x="247.2228393555" y="142.4401855469"/>
			<point x="881.4833984375" y="635.4767456055"/>
			<point x="921.9979858398" y="1043.2722167969" type="qcurve" smooth="yes"/>
			<point x="962.8246459961" y="1278.2365722656"/>
			<point x="810.3767089844" y="1435.0836181641"/>
			<point x="693.4926147461" y="1435.6415405273" type="qcurve" smooth="yes"/>
			<point x="547.8661499023" y="1436.7573852539"/>
			<point x="344.5436401367" y="1189.7169799805"/>
			<point x="313.5005493164" y="940.6918334961" type="qcurve" smooth="yes"/>
			<point x="288.5961914062" y="874.7163696289"/>
			<point x="359.8552856445" y="755.7943725586"/>
			<point x="516.3843994141" y="753.2364501953" type="qcurve" smooth="yes"/>
			<point x="543.6719970703" y="751.678527832"/>
			<point x="600.6798095703" y="746.2612304688"/>
			<point x="640.2813110352" y="761.6533203125" type="qcurve"/>
			<point x="656.5698242188" y="692.8542480469" type="line"/>
			<point x="617.4326782227" y="656.6166381836"/>
			<point x="533.440246582" y="619.2061767578"/>
			<point x="463.8746948242" y="619.7640991211" type="qcurve" smooth="yes"/>
			<point x="300.0071411133" y="620.8799438477"/>
			<point x="116.8958740234" y="817.9400634766"/>
			<point x="140.4111938477" y="951.2724609375" type="qcurve" smooth="yes"/>
			<point x="169.4844360352" y="1227.4619750977"/>
			<point x="524.1726074219" y="1553.1447753906"/>
			<point x="731.6470947266" y="1552.5868530273" type="qcurve" smooth="yes"/>
			<point x="913.8557128906" y="1552.0289306641"/>
			<point x="1137.310546875" y="1245.3400268555"/>
			<point x="1092.3318481445" y="996.3937988281" type="qcurve" smooth="yes"/>
			<point x="1032.0269165039" y="620.6903686523"/>
			<point x="399.1151733398" y="61.1758422852"/>
		</contour>
	</outline>
</glyph>
<glyph name="A" format="2">
	<unicode hex="0041"/>
	<advance width="1467"/>
	<outline>
		<contour>
			<point x="-195.2943725586" y="0" type="line"/>
			<point x="-193.2474365234" y="101.0026855469" type="line"/>
			<point x="25.8852539062" y="129.0026855469" type="line"/>
			<point x="311.0884399414" y="532.4815673828" type="line"/>
			<point x="971.8865356445" y="1517" type="line"/>
			<point x="1118.8925170898" y="1506" type="line"/>
			<point x="1171.119140625" y="561" type="line"/>
			<point x="1214.8518066406" y="125.0026855469" type="line"/>
			<point x="1398.5931396484" y="100.0026855469" type="line"/>
			<point x="1374.2844848633" y="0" type="line"/>
			<point x="832.352355957" y="0" type="line"/>
			<point x="858.6610107422" y="100.0026855469" type="line"/>
			<point x="1034.40234375" y="128.0026855469" type="line"/>
			<point x="1010.0994873047" y="546" type="line"/>
			<point x="994.6959228516" y="1227.7930908203" type="line"/>
			<point x="982.6788330078" y="1310.6923828125" type="line"/>
			<point x="979.6788330078" y="1313.6923828125" type="line"/>
			<point x="912.7868652344" y="1235.4808959961" type="line"/>
			<point x="403.1748046875" y="501.2221679688" type="line"/>
			<point x="158.9969482422" y="130.0026855469" type="line"/>
			<point x="355.6080322266" y="101.0026855469" type="line"/>
			<point x="353.5610961914" y="0" type="line"/>
		</contour>
		<contour>
			<point x="317.0456542969" y="463.0738525391" type="line"/>
			<point x="386.0404052734" y="565.111328125" type="line"/>
			<point x="754.0668334961" y="558.2224121094" type="line"/>
			<point x="736.4000854492" y="469.5924072266" type="line"/>
		</contour>
		<contour>
			<point x="757.4213867188" y="558.2224121094" type="line"/>
			<point x="1099.341003418" y="561.6668701172" type="line"/>
			<point x="1104.3024291992" y="467.9627685547" type="line"/>
			<point x="739.7546386719" y="469.5924072266" type="line"/>
		</contour>
	</outline>
	<anchor name="bottom" x="523" y="0"/>
	<anchor name="ogonek" x="1098" y="0"/>
	<anchor name="top" x="954" y="1500"/>
	<anchor name="tonos" x="613" y="1500"/>
</glyph>
<glyph name="B" format="2">
	<unicode hex="0042"/>
	<advance width="1310"/>
	<outline>
		<contour>
			<point x="-44.438293457" y="0" type="line"/>
			<point x="-31.4777832031" y="101.0026855469" type="line"/>
			<point x="130.9595336914" y="120.0026855469" type="line"/>
			<point x="285.9990234375" y="819" type="line"/>
			<point x="407.5184326172" y="1362.2369384766" type="line"/>
			<point x="220.5543212891" y="1388.2369384766" type="line"/>
			<point x="229.9962768555" y="1500" type="line"/>
			<point x="836.9609375" y="1500" type="line" smooth="yes"/>
			<point x="1049.3478393555" y="1500"/>
			<point x="1222.6358642578" y="1318"/>
			<point x="1202.7647705078" y="1168" type="qcurve" smooth="yes"/>
			<point x="1184.4301147461" y="1034"/>
			<point x="1002.3565673828" y="857"/>
			<point x="878.6833496094" y="836" type="qcurve"/>
			<point x="877.6104736328" y="833" type="line"/>
			<point x="1016.1307983398" y="807"/>
			<point x="1167.772644043" y="577"/>
			<point x="1133.8157958984" y="404" type="qcurve" smooth="yes"/>
			<point x="1096.8589477539" y="217"/>
			<point x="760.2640380859" y="0"/>
			<point x="539.9613037109" y="0" type="qcurve" smooth="yes"/>
		</contour>
		<contour>
			<point x="302.3954467773" y="121.7781982422" type="line"/>
			<point x="317.7264404297" y="101.8522949219" type="line"/>
			<point x="487.7385253906" y="101.8522949219" type="line" smooth="yes"/>
			<point x="689.1210327148" y="101.8522949219"/>
			<point x="907.1879882812" y="217"/>
			<point x="941.4066162109" y="416" type="qcurve" smooth="yes"/>
			<point x="970.6252441406" y="589"/>
			<point x="822.2320556641" y="772.9256591797"/>
			<point x="651.4385986328" y="772.9256591797" type="qcurve" smooth="yes"/>
			<point x="444.9642944336" y="772.9256591797" type="line"/>
			<point x="439.5939331055" y="749.1849365234" type="line"/>
		</contour>
		<contour>
			<point x="472.5053100586" y="895.07421875" type="line"/>
			<point x="469.9497680664" y="879.111328125" type="line"/>
			<point x="669.6763916016" y="879.111328125" type="line" smooth="yes"/>
			<point x="820.6156005859" y="879.111328125"/>
			<point x="996.1151123047" y="1028"/>
			<point x="1015.0888061523" y="1175" type="qcurve" smooth="yes"/>
			<point x="1040.5260620117" y="1352"/>
			<point x="863.2964477539" y="1381.9254150391"/>
			<point x="717.5758666992" y="1381.9254150391" type="qcurve" smooth="yes"/>
			<point x="617.1467895508" y="1381.9254150391" type="line"/>
			<point x="576.6174926758" y="1371.9995117188" type="line"/>
		</contour>
	</outline>
	<anchor name="bottom" x="630" y="0"/>
	<anchor name="top" x="630" y="1500"/>
</glyph>
<glyph name="C" format="2">
	<unicode hex="0043"/>
	<advance width="1439"/>
	<outline>
		<contour>
			<point x="86.5302846461" y="788" type="qcurve" smooth="yes"/>
			<point x="158.5302846461" y="1147"/>
			<point x="707.880131445" y="1546.018371582"/>
			<point x="1049.7802779293" y="1521" type="qcurve" smooth="yes"/>
			<point x="1167.9792525387" y="1515.8102416992"/>
			<point x="1322.6550621847" y="1443.4661254883"/>
			<point x="1368.6511559347" y="1403.9593505859" type="qcurve"/>
			<point x="1442.4026207785" y="1488.9503173828" type="line"/>
			<point x="1484.6122765402" y="1487.9503173828" type="line"/>
			<point x="1355.6615319113" y="900.6906738281" type="line"/>
			<point x="1250.9386315207" y="900.6906738281" type="line"/>
			<point x="1295.2325768332" y="1124.4434814453" type="line"/>
			<point x="1279.7809166769" y="1258.3622436523"/>
			<point x="1133.2162194113" y="1389.2348022461"/>
			<point x="1046.4790978293" y="1393.4438476562" type="qcurve" smooth="yes"/>
			<point x="741.844210134" y="1424.8193969727"/>
			<point x="355.1246449977" y="1155"/>
			<point x="275.6995351344" y="769" type="qcurve" smooth="yes"/>
			<point x="194.210704568" y="383"/>
			<point x="469.9848418507" y="110.4416503906"/>
			<point x="678.1305327687" y="90.4820556641" type="qcurve" smooth="yes"/>
			<point x="968.3638701711" y="58.9774780273"/>
			<point x="1259.1521718531" y="281.9262695312"/>
			<point x="1278.9550282985" y="408.4816894531" type="qcurve"/>
			<point x="1308.0707509547" y="402.4075927734" type="line"/>
			<point x="1331.3048207789" y="332.2961425781" type="line"/>
			<point x="1275.7519316945" y="152.0384521484"/>
			<point x="862.6573882375" y="-68.4621582031"/>
			<point x="584.9590566188" y="-31" type="qcurve" smooth="yes"/>
			<point x="350.3602407008" y="2.6929931641"/>
			<point x="7.2813832789" y="398"/>
		</contour>
	</outline>
	<anchor name="bottom" x="596" y="0"/>
	<anchor name="top" x="906" y="1500"/>
</glyph>
<glyph name="F" format="2">
	<unicode hex="0046"/>
	<advance width="1089"/>
	<outline>
		<contour>
			<point x="-59.4478759766" y="0" type="line"/>
			<point x="-43.4873657227" y="99.0026855469" type="line"/>
			<point x="134.6594238281" y="125.0026855469" type="line"/>
			<point x="271.8588867188" y="790" type="line"/>
			<point x="391.3782958984" y="1365.2369384766" type="line"/>
			<point x="209.5447387695" y="1388.2369384766" type="line"/>
			<point x="219.3345336914" y="1500" type="line"/>
			<point x="1136.6774291992" y="1500" type="line"/>
			<point x="1067.0299682617" y="1068.6517333984" type="line"/>
			<point x="979.4275512695" y="1068.6517333984" type="line"/>
			<point x="973.5934448242" y="1396.7032470703" type="line"/>
			<point x="593.3603515625" y="1396.7032470703" type="line"/>
			<point x="562.3603515625" y="1374.7032470703" type="line"/>
			<point x="438.8419189453" y="778" type="line"/>
			<point x="305.6424560547" y="125.0026855469" type="line"/>
			<point x="514.2400512695" y="100.0026855469" type="line"/>
			<point x="495.6273803711" y="0" type="line"/>
		</contour>
		<contour>
			<point x="352.763671875" y="731.5183105469" type="line"/>
			<point x="372.6837768555" y="823.9261474609" type="line"/>
			<point x="757.1884155273" y="830.8150634766" type="line"/>
			<point x="843.1068725586" y="1033.4073486328" type="line"/>
			<point x="940.1095581055" y="1033.4073486328" type="line"/>
			<point x="830.2925415039" y="499.4074707031" type="line"/>
			<point x="737.289855957" y="499.4074707031" type="line"/>
			<point x="732.2623901367" y="716.9997558594" type="line"/>
		</contour>
	</outline>
	<anchor name="bottom" x="578" y="0"/>
	<anchor name="top" x="622" y="1500"/>
</glyph>
<glyph name="G" format="2">
	<unicode hex="0047"/>
	<advance width="1409"/>
	<outline>
		<contour>
			<point x="78.0421509937" y="756" type="qcurve" smooth="yes"/>
			<point x="159.0421509937" y="1133"/>
			<point x="712.5276856617" y="1510.4435424805"/>
			<point x="949.821569939" y="1523" type="qcurve" smooth="yes"/>
			<point x="1049.8851075367" y="1524.0045166016"/>
			<point x="1219.3015504078" y="1456.6251220703"/>
			<point x="1242.4073853687" y="1412" type="qcurve" smooth="yes"/>
			<point x="1325.2545097409" y="1500" type="line"/>
			<point x="1376.5671928464" y="1500" type="line"/>
			<point x="1240.9226615964" y="938.2219238281" type="line"/>
			<point x="1136.1997612058" y="938.2219238281" type="line"/>
			<point x="1163.3390434323" y="1134.7689208984" type="line"/>
			<point x="1165.2170167164" y="1231.3862915039"/>
			<point x="1023.9488282398" y="1385.0804443359"/>
			<point x="919.3758912281" y="1398.0734863281" type="qcurve" smooth="yes"/>
			<point x="726.3732667164" y="1428.3549194336"/>
			<point x="356.6822877125" y="1138"/>
			<point x="274.944616814" y="752" type="qcurve" smooth="yes"/>
			<point x="203.7046876148" y="418.8148193359"/>
			<point x="372.7616944507" y="120.2860717773"/>
			<point x="554.068823357" y="99.7413330078" type="qcurve" smooth="yes"/>
			<point x="684.4843507007" y="82.8036499023"/>
			<point x="941.2005982593" y="152.9635009766"/>
			<point x="1064.2842164234" y="220.7043457031" type="qcurve"/>
			<point x="1144.0410087644" y="584.3172607422" type="line"/>
			<point x="977.2371757566" y="606.1572875977" type="line"/>
			<point x="988.8826225339" y="709" type="line"/>
			<point x="1485.8335502683" y="709" type="line"/>
			<point x="1473.8123710691" y="604.3172607422" type="line"/>
			<point x="1314.7706840573" y="585.3172607422" type="line"/>
			<point x="1237.010796362" y="231.7180175781" type="line"/>
			<point x="1133.1241822437" y="189.3590087891" type="line"/>
			<point x="1000.1944337086" y="89.1995849609"/>
			<point x="705.1294312672" y="-43"/>
			<point x="518.8338380054" y="-25" type="qcurve" smooth="yes"/>
			<point x="270.3699097828" y="-5.5293579102"/>
			<point x="14.0421509937" y="460"/>
		</contour>
	</outline>
	<anchor name="bottom" x="667" y="0"/>
	<anchor name="top" x="907" y="1492"/>
</glyph>
<glyph name="H" format="2">
	<unicode hex="0048"/>
	<advance width="1581"/>
	<outline>
		<contour>
			<point x="-64.188293457" y="0" type="line"/>
			<point x="-48.2277832031" y="99.0026855469" type="line"/>
			<point x="139.4268188477" y="125.0026855469" type="line"/>
			<point x="277.4663085938" y="782" type="line"/>
			<point x="396.3056640625" y="1350.9966430664" type="line"/>
			<point x="229.5137939453" y="1389.3969116211" type="line"/>
			<point x="238.7678833008" y="1500" type="line"/>
			<point x="775.0053710938" y="1500" type="line"/>
			<point x="752.8726196289" y="1389.3969116211" type="line"/>
			<point x="559.5814819336" y="1350.9966430664" type="line"/>
			<point x="440.2094116211" y="761" type="line"/>
			<point x="307.169921875" y="125.0026855469" type="line"/>
			<point x="482.5983276367" y="99.0026855469" type="line"/>
			<point x="474.5164794922" y="0" type="line"/>
		</contour>
		<contour>
			<point x="350.8123779297" y="708.5183105469" type="line"/>
			<point x="371.176940918" y="825.1484375" type="line"/>
			<point x="837.2373046875" y="819.8891601562" type="line"/>
			<point x="1257.7198486328" y="825.1484375" type="line"/>
			<point x="1236.6086425781" y="708.5183105469" type="line"/>
			<point x="817.7557373047" y="712.7775878906" type="line"/>
		</contour>
		<contour>
			<point x="843.0098266602" y="0" type="line"/>
			<point x="850.9703369141" y="99.0026855469" type="line"/>
			<point x="1026.6249389648" y="125.0026855469" type="line"/>
			<point x="1160.6644287109" y="764" type="line"/>
			<point x="1274.5037841797" y="1350.9966430664" type="line"/>
			<point x="1117.7119140625" y="1387.3969116211" type="line"/>
			<point x="1125.966003418" y="1500" type="line"/>
			<point x="1637.3229370117" y="1500" type="line"/>
			<point x="1616.1901855469" y="1387.3969116211" type="line"/>
			<point x="1442.246887207" y="1350.9966430664" type="line"/>
			<point x="1326.9008178711" y="750" type="line"/>
			<point x="1193.861328125" y="125.0026855469" type="line"/>
			<point x="1368.9418945312" y="99.0026855469" type="line"/>
			<point x="1359.8600463867" y="0" type="line"/>
		</contour>
	</outline>
	<anchor name="bottom" x="607" y="0"/>
	<anchor name="center" x="820" y="1079"/>
	<anchor name="top" x="950" y="1500"/>
	<anchor name="tonos" x="81" y="1500"/>
	<anchor name="cy_descender" x="1399" y="100"/>
</glyph>
<glyph name="K" format="2">
	<unicode hex="004B"/>
	<advance width="1179"/>
	<outline>
		<contour>
			<point x="-50.9598999023" y="0" type="line"/>
			<point x="-47.8780517578" y="100.0026855469" type="line"/>
			<point x="139.9595336914" y="125.0026855469" type="line"/>
			<point x="286.9990234375" y="818" type="line"/>
			<point x="399.5184326172" y="1361.2369384766" type="line"/>
			<point x="234.5543212891" y="1388.2369384766" type="line"/>
			<point x="242.9962768555" y="1500" type="line"/>
			<point x="790.3922119141" y="1500" type="line"/>
			<point x="769.9502563477" y="1388.2369384766" type="line"/>
			<point x="572.474609375" y="1361.2369384766" type="line"/>
			<point x="451.4753417969" y="802" type="line"/>
			<point x="313.6623535156" y="122.0026855469" type="line"/>
			<point x="472.0037231445" y="100.0026855469" type="line"/>
			<point x="464.921875" y="0" type="line"/>
		</contour>
		<contour>
			<point x="308.0123291016" y="491.0305175781" type="line"/>
			<point x="321.5799560547" y="604.2033691406" type="line"/>
			<point x="963.4167480469" y="1366.2369384766" type="line"/>
			<point x="781.7670898438" y="1388.2369384766" type="line"/>
			<point x="793.2090454102" y="1500" type="line"/>
			<point x="1342.7204589844" y="1500" type="line"/>
			<point x="1330.278503418" y="1388.2369384766" type="line"/>
			<point x="1116.1510009766" y="1365.2369384766" type="line"/>
		</contour>
		<contour>
			<point x="517.4068603516" y="795.6382446289" type="line"/>
			<point x="646.4351196289" y="909.643737793" type="line"/>
			<point x="963.0494384766" y="125.0026855469" type="line"/>
			<point x="1132.9556274414" y="101.0026855469" type="line"/>
			<point x="1124.8737792969" y="0" type="line"/>
			<point x="588.811706543" y="0" type="line"/>
			<point x="595.8935546875" y="100.0026855469" type="line"/>
			<point x="784.5999755859" y="125.0026855469" type="line"/>
		</contour>
	</outline>
	<anchor name="bottom" x="607" y="0"/>
	<anchor name="top" x="896" y="1500"/>
	<anchor name="kai_tail" x="1201" y="100"/>
</glyph>
<glyph name="L" format="2">
	<unicode hex="004C"/>
	<advance width="1138"/>
	<outline>
		<contour>
			<point x="-62.1676025391" y="0" type="line"/>
			<point x="-60.8978881836" y="100.0026855469" type="line"/>
			<point x="137.5394287109" y="123.0026855469" type="line"/>
			<point x="289.6592407227" y="793" type="line"/>
			<point x="411.0588378906" y="1362.076965332" type="line"/>
			<point x="233.7082519531" y="1388.076965332" type="line"/>
			<point x="242.3101806641" y="1500" type="line"/>
			<point x="788.9583129883" y="1500" type="line"/>
			<point x="779.3563842773" y="1388.076965332" type="line"/>
			<point x="575.7885131836" y="1360.076965332" type="line"/>
			<point x="453.3889160156" y="783" type="line"/>
			<point x="310.6049804688" y="129.2967529297" type="line"/>
			<point x="318.6049804688" y="110.2967529297" type="line"/>
			<point x="814.4524536133" y="110.2967529297" type="line"/>
			<point x="950.073059082" y="453.0212402344" type="line"/>
			<point x="1066.3160400391" y="453.0212402344" type="line"/>
			<point x="927.7692871094" y="0" type="line"/>
		</contour>
	</outline>
	<anchor name="bottom" x="535" y="0"/>
	<anchor name="centerright" x="755" y="750"/>
	<anchor name="top" x="878" y="1500"/>
	<anchor name="topright" x="804" y="1001"/>
	<anchor name="center" x="397" y="750"/>
	<anchor name="liga" x="1104" y="0"/>
</glyph>
<glyph name="M" format="2">
	<unicode hex="004D"/>
	<advance width="1863"/>
	<outline>
		<contour>
			<point x="-70.7855224609" y="0" type="line"/>
			<point x="-65.7036743164" y="100.0026855469" type="line"/>
			<point x="163.6901245117" y="133.0026855469" type="line"/>
			<point x="293.0676269531" y="730" type="line"/>
			<point x="417.2095336914" y="1342.2369384766" type="line"/>
			<point x="208.8592529297" y="1390.2369384766" type="line"/>
			<point x="216.3012084961" y="1500" type="line"/>
			<point x="654.9320678711" y="1500" type="line"/>
			<point x="761.3843383789" y="657.8241577148" type="line"/>
			<point x="815.4365844727" y="188.9270019531" type="line"/>
			<point x="831.7122192383" y="53.3952026367" type="line"/>
			<point x="832.7122192383" y="53.3952026367" type="line"/>
			<point x="903.4286499023" y="186.6870727539" type="line"/>
			<point x="1156.6328735352" y="740.0478515625" type="line"/>
			<point x="1508.7166137695" y="1500" type="line"/>
			<point x="1920.491394043" y="1500" type="line"/>
			<point x="1899.5465087891" y="1388.2369384766" type="line"/>
			<point x="1723.1962280273" y="1361.2369384766" type="line"/>
			<point x="1602.0767211914" y="750" type="line"/>
			<point x="1458.1571044922" y="130.0026855469" type="line"/>
			<point x="1644.9857788086" y="100.0026855469" type="line"/>
			<point x="1637.9039306641" y="0" type="line"/>
			<point x="1094.7777099609" y="0" type="line"/>
			<point x="1100.8595581055" y="100.0026855469" type="line"/>
			<point x="1292.4274291992" y="130.0026855469" type="line"/>
			<point x="1436.5869750977" y="751" type="line"/>
			<point x="1530.8269042969" y="1216.2120361328" type="line"/>
			<point x="1543.2652587891" y="1309.0268554688" type="line"/>
			<point x="1542.2652587891" y="1309.0268554688" type="line"/>
			<point x="1490.9459838867" y="1219.147277832" type="line"/>
			<point x="1215.4525146484" y="640.7368164062" type="line"/>
			<point x="852.3757324219" y="-5" type="line"/>
			<point x="745.5256958008" y="-5" type="line"/>
			<point x="606.4799804688" y="618.9395751953" type="line"/>
			<point x="531.9161987305" y="1223.4682006836" type="line"/>
			<point x="518.2414550781" y="1341.1851806641" type="line"/>
			<point x="517.2414550781" y="1339.5555419922" type="line"/>
			<point x="500.370300293" y="1220.5555419922" type="line"/>
			<point x="396.87109375" y="723" type="line"/>
			<point x="283.6464233398" y="133.0026855469" type="line"/>
			<point x="501.8664550781" y="100.0026855469" type="line"/>
			<point x="483.9059448242" y="0" type="line"/>
		</contour>
	</outline>
	<anchor name="bottom" x="768" y="0"/>
	<anchor name="top" x="1048" y="1500"/>
</glyph>
<glyph name="R" format="2">
	<unicode hex="0052"/>
	<advance width="1337"/>
	<outline>
		<contour>
			<point x="-69.1204223633" y="0" type="line"/>
			<point x="-53.1599121094" y="100.0026855469" type="line"/>
			<point x="126.2774047852" y="120.0026855469" type="line"/>
			<point x="275.5433959961" y="796" type="line"/>
			<point x="384.8497314453" y="1361.2369384766" type="line"/>
			<point x="209.0161743164" y="1388.2369384766" type="line"/>
			<point x="219.8059692383" y="1500" type="line"/>
			<point x="839.5609741211" y="1500" type="line" smooth="yes"/>
			<point x="987.6051635742" y="1500"/>
			<point x="1224.4130859375" y="1316"/>
			<point x="1195.5588378906" y="1151" type="qcurve" smooth="yes"/>
			<point x="1166.0952758789" y="971"/>
			<point x="836.3364257812" y="730.2590332031"/>
			<point x="721.4600830078" y="730.2590332031" type="qcurve" smooth="yes"/>
			<point x="626.1539306641" y="730.2590332031"/>
			<point x="419.6065063477" y="733.2590332031"/>
			<point x="365.3934326172" y="740.2456054688" type="qcurve"/>
			<point x="383.3135375977" y="825.2224121094" type="line"/>
			<point x="514.4675292969" y="825.2224121094" type="line"/>
			<point x="635.811340332" y="825.2224121094" type="line" smooth="yes"/>
			<point x="806.4995727539" y="825.2224121094"/>
			<point x="980.1793823242" y="1005"/>
			<point x="1004.6429443359" y="1151" type="qcurve" smooth="yes"/>
			<point x="1034.6429443359" y="1332"/>
			<point x="850.167175293" y="1387.5550537109"/>
			<point x="733.4528198242" y="1389.5550537109" type="qcurve" smooth="yes"/>
			<point x="581.1634521484" y="1389.5550537109" type="line"/>
			<point x="554.686706543" y="1375.455871582" type="line"/>
			<point x="432.539855957" y="757" type="line"/>
			<point x="298.5003662109" y="120.0026855469" type="line"/>
			<point x="488.9812011719" y="100.0026855469" type="line"/>
			<point x="470.020690918" y="0" type="line"/>
		</contour>
		<contour>
			<point x="644.2514038086" y="756.9517211914" type="line"/>
			<point x="805.0213623047" y="801" type="line"/>
			<point x="814.557800293" y="716" type="line" smooth="yes"/>
			<point x="862.383605957" y="341.2044677734"/>
			<point x="938.8851928711" y="113.306640625"/>
			<point x="1142.0604248047" y="100.1626586914" type="qcurve"/>
			<point x="1117.6996459961" y="0" type="line"/>
			<point x="1073.2503051758" y="0" type="line" smooth="yes"/>
			<point x="854.4012451172" y="0"/>
			<point x="706.3840332031" y="291.7934570312"/>
			<point x="656.6123657227" y="682" type="qcurve" smooth="yes"/>
		</contour>
	</outline>
	<anchor name="bottom" x="573" y="0"/>
	<anchor name="top" x="670" y="1500"/>
</glyph>
<glyph name="S" format="2">
	<unicode hex="0053"/>
	<advance width="882"/>
	<outline>
		<contour>
			<point x="-74.1018066406" y="3.0639648438" type="line"/>
			<point x="39.9174194336" y="517.4445800781" type="line"/>
			<point x="140.2802124023" y="517.4445800781" type="line"/>
			<point x="112.6620483398" y="376.8522949219" type="line" smooth="yes"/>
			<point x="86.1290893555" y="232.4819335938"/>
			<point x="197.7683105469" y="89.7783203125"/>
			<point x="358.2476196289" y="90.7783203125" type="qcurve" smooth="yes"/>
			<point x="451.7874755859" y="90.7783203125"/>
			<point x="658.7734375" y="186.0743408203"/>
			<point x="684.7734375" y="309.5557861328" type="qcurve" smooth="yes"/>
			<point x="711.7734375" y="465.5236206055"/>
			<point x="546.8424072266" y="615.2977294922"/>
			<point x="394.8001098633" y="756.6153564453" type="qcurve" smooth="yes"/>
			<point x="286.160949707" y="855.9442138672"/>
			<point x="180.5806884766" y="1128.5266113281"/>
			<point x="223.5806884766" y="1304.2125854492" type="qcurve" smooth="yes"/>
			<point x="260.5806884766" y="1387.33203125"/>
			<point x="498.1705322266" y="1522"/>
			<point x="604.1510009766" y="1523" type="qcurve" smooth="yes"/>
			<point x="712.6200561523" y="1523"/>
			<point x="855.4654541016" y="1433.6093139648"/>
			<point x="864.2362670898" y="1388.0172729492" type="qcurve"/>
			<point x="921.1352539062" y="1510.8965454102" type="line"/>
			<point x="1012.7376708984" y="1495.7760620117" type="line"/>
			<point x="915.0888061523" y="1046.7205810547" type="line"/>
			<point x="806.4857177734" y="1046.7205810547" type="line"/>
			<point x="808.7185668945" y="1240.3391113281" type="line"/>
			<point x="834.7995605469" y="1315.7387084961"/>
			<point x="684.8141479492" y="1415.2957763672"/>
			<point x="611.9509887695" y="1415.2957763672" type="qcurve" smooth="yes"/>
			<point x="550.6132202148" y="1415.2957763672"/>
			<point x="399.3178710938" y="1333.1585693359"/>
			<point x="367.7814331055" y="1279.5557250977" type="qcurve" smooth="yes"/>
			<point x="331.2449951172" y="1150.5336303711"/>
			<point x="433.3466796875" y="994.8203735352"/>
			<point x="567.01171875" y="886.8516845703" type="qcurve" smooth="yes"/>
			<point x="716.5521240234" y="740.4829711914"/>
			<point x="879.5587158203" y="513.9022216797"/>
			<point x="842.0951538086" y="298.6392211914" type="qcurve" smooth="yes"/>
			<point x="809.3782348633" y="123.2130737305"/>
			<point x="526.7899780273" y="-23"/>
			<point x="365.7445678711" y="-23" type="qcurve" smooth="yes"/>
			<point x="239.9706420898" y="-23"/>
			<point x="104.6285400391" y="79.9179077148"/>
			<point x="78.719543457" y="113.0388183594" type="qcurve"/>
			<point x="5.4202270508" y="-15.0565185547" type="line"/>
		</contour>
	</outline>
	<anchor name="bottom" x="399" y="0"/>
	<anchor name="top" x="679" y="1500"/>
</glyph>
<glyph name="X" format="2">
	<unicode hex="0058"/>
	<advance width="1272"/>
	<outline>
		<contour>
			<point x="-244.1595458984" y="0" type="line"/>
			<point x="-238.0776977539" y="100.0026855469" type="line"/>
			<point x="-29.5104370117" y="120.0026855469" type="line"/>
			<point x="583.6732177734" y="770.3570556641" type="line"/>
			<point x="299.9273071289" y="1365.2369384766" type="line"/>
			<point x="119.0557250977" y="1388.2369384766" type="line"/>
			<point x="128.4976806641" y="1500" type="line"/>
			<point x="667.7274780273" y="1500" type="line"/>
			<point x="657.2855224609" y="1388.2369384766" type="line"/>
			<point x="488.4574584961" y="1365.2369384766" type="line"/>
			<point x="642.8246459961" y="953.2089233398" type="line"/>
			<point x="692.5072631836" y="907.6458129883" type="line"/>
			<point x="693.5072631836" y="907.6458129883" type="line"/>
			<point x="763.4935913086" y="954.6059570312" type="line"/>
			<point x="1099.8735961914" y="1344.2369384766" type="line"/>
			<point x="897.5671386719" y="1388.2369384766" type="line"/>
			<point x="908.0090942383" y="1500" type="line"/>
			<point x="1455.9958496094" y="1500" type="line"/>
			<point x="1446.553894043" y="1388.2369384766" type="line"/>
			<point x="1235.5082397461" y="1346.2369384766" type="line"/>
			<point x="706.9393310547" y="836.3521728516" type="line"/>
			<point x="1031.2634277344" y="121.0026855469" type="line"/>
			<point x="1224.9177246094" y="100.0026855469" type="line"/>
			<point x="1217.8358764648" y="0" type="line"/>
			<point x="642.3397216797" y="0" type="line"/>
			<point x="649.4215698242" y="100.0026855469" type="line"/>
			<point x="843.5974731445" y="120.0026855469" type="line"/>
			<point x="647.4268798828" y="628.4072875977" type="line"/>
			<point x="594.8168945312" y="698.1057128906" type="line"/>
			<point x="593.8168945312" y="698.1057128906" type="line"/>
			<point x="514.8518676758" y="626.4028320312" type="line"/>
			<point x="111.124206543" y="125.0026855469" type="line"/>
			<point x="311.4306640625" y="100.0026855469" type="line"/>
			<point x="303.0920410156" y="0" type="line"/>
		</contour>
	</outline>
	<anchor name="bottom" x="453" y="0"/>
	<anchor name="top" x="723" y="1500"/>
	<anchor name="cy_descender" x="1125" y="100"/>
	<anchor name="center" x="591" y="791"/>
</glyph>
<glyph name="Y" format="2">
	<unicode hex="0059"/>
	<advance width="1407"/>
	<outline>
		<contour>
			<point x="322.2562255859" y="0" type="line"/>
			<point x="330.3380737305" y="100.0026855469" type="line"/>
			<point x="540.3062133789" y="120.0026855469" type="line"/>
			<point x="655.8271484375" y="629.4072265625" type="line"/>
			<point x="482.6958618164" y="945.0280151367" type="line"/>
			<point x="252.6993408203" y="1353.2369384766" type="line"/>
			<point x="71.2626342773" y="1388.2369384766" type="line"/>
			<point x="77.7045898438" y="1500" type="line"/>
			<point x="660.1692504883" y="1500" type="line"/>
			<point x="652.7272949219" y="1388.2369384766" type="line"/>
			<point x="468.899230957" y="1353.2369384766" type="line"/>
			<point x="618.7733154297" y="1052.3383789062" type="line"/>
			<point x="777.1625366211" y="761.0557250977" type="line"/>
			<point x="778.1625366211" y="761.0557250977" type="line"/>
			<point x="1030.4564208984" y="1113.1569824219" type="line"/>
			<point x="1215.7415771484" y="1347.2369384766" type="line"/>
			<point x="1040.1740112305" y="1388.2369384766" type="line"/>
			<point x="1047.6159667969" y="1500" type="line"/>
			<point x="1550.3672485352" y="1500" type="line"/>
			<point x="1541.9252929688" y="1388.2369384766" type="line"/>
			<point x="1357.4885864258" y="1347.2369384766" type="line"/>
			<point x="1102.450378418" y="1042.257019043" type="line"/>
			<point x="836.0682373047" y="697.6376342773" type="line"/>
			<point x="708.7959594727" y="120.0026855469" type="line"/>
			<point x="892.6157226562" y="99.0026855469" type="line"/>
			<point x="883.5338745117" y="0" type="line"/>
		</contour>
	</outline>
	<anchor name="bottom" x="443" y="0"/>
	<anchor name="top" x="731" y="1500"/>
	<anchor name="tonos" x="-13" y="1500"/>
	<anchor name="center" x="553" y="579"/>
</glyph>
<glyph name="Z" format="2">
	<unicode hex="005A"/>
	<advance width="1185"/>
	<outline>
		<contour>
			<point x="-66.2591552734" y="0" type="line"/>
			<point x="-81.7777099609" y="79.5559082031" type="line"/>
			<point x="560.8173217773" y="803.3549194336" type="line"/>
			<point x="1036.9647827148" y="1378.5550537109" type="line"/>
			<point x="1026.9647827148" y="1385.5550537109" type="line"/>
			<point x="436.2888793945" y="1385.5550537109" type="line"/>
			<point x="348.9711303711" y="1162.4077148438" type="line"/>
			<point x="237.5681762695" y="1162.4077148438" type="line"/>
			<point x="313.9458618164" y="1500" type="line"/>
			<point x="1295.6351928711" y="1500" type="line"/>
			<point x="1286.9314575195" y="1409.0737304688" type="line"/>
			<point x="678.9439086914" y="704.9047241211" type="line"/>
			<point x="175.6563720703" y="109.2967529297" type="line"/>
			<point x="175.6563720703" y="103.2967529297" type="line"/>
			<point x="848.1627807617" y="103.2967529297" type="line"/>
			<point x="933.2391967773" y="355.5922851562" type="line"/>
			<point x="1042.4018554688" y="355.5922851562" type="line"/>
			<point x="989.4293212891" y="0" type="line"/>
		</contour>
	</outline>
	<anchor name="bottom" x="383" y="0"/>
	<anchor name="top" x="643" y="1500"/>
	<anchor name="_liga" x="0" y="0"/>
</glyph>
<glyph name="a" format="2">
	<unicode hex="0061"/>
	<advance width="930"/>
	<outline>
		<contour>
			<point x="-44.0207466457" y="264" type="qcurve" smooth="yes"/>
			<point x="-52.8889107082" y="506.4870605469"/>
			<point x="471.5436454441" y="1005.4877929688"/>
			<point x="691.9743095066" y="1005.4877929688" type="qcurve" smooth="yes"/>
			<point x="729.2057548191" y="1005.4877929688"/>
			<point x="785.7184501316" y="987.4877929688"/>
			<point x="808.2887626316" y="972.4877929688" type="qcurve"/>
			<point x="866.9977470066" y="1009.4877929688" type="line"/>
			<point x="910.7913261082" y="1003.4877929688" type="line"/>
			<point x="963.9937186863" y="983.4877929688" type="line"/>
			<point x="815.485417905" y="402" type="line"/>
			<point x="772.5020194675" y="195" type="line"/>
			<point x="763.9649100925" y="139"/>
			<point x="784.30377728" y="42"/>
			<point x="810.9981132175" y="0" type="qcurve"/>
			<point x="609.5109306004" y="0" type="line"/>
			<point x="619.9294486668" y="27.0166015625"/>
			<point x="595.7172904636" y="103.5576782227"/>
			<point x="594.020940366" y="147.9686889648" type="qcurve"/>
			<point x="513.7090507175" y="100.6314697266"/>
			<point x="321.5777030613" y="-10"/>
			<point x="223.0946708347" y="-10" type="qcurve" smooth="yes"/>
			<point x="95.8446708347" y="-10"/>
			<point x="-44.9875435207" y="116"/>
		</contour>
		<contour>
			<point x="126.0819144871" y="301.065612793" type="qcurve" smooth="yes"/>
			<point x="116.5448051121" y="165.2650146484"/>
			<point x="204.1255546238" y="84.9974365234"/>
			<point x="280.162358823" y="84.9974365234" type="qcurve" smooth="yes"/>
			<point x="396.6060233738" y="84.9974365234"/>
			<point x="613.2800956394" y="233.9305419922"/>
			<point x="664.1613212254" y="441.5291748047" type="qcurve" smooth="yes"/>
			<point x="775.5854545261" y="839.024230957" type="line"/>
			<point x="757.9429984715" y="848.6245727539"/>
			<point x="706.4489799168" y="875.6914672852"/>
			<point x="650.1843314793" y="875.6914672852" type="qcurve" smooth="yes"/>
			<point x="448.3483939793" y="875.6914672852"/>
			<point x="131.8006644871" y="502.0878295898"/>
		</contour>
	</outline>
	<anchor name="bottom" x="345" y="0"/>
	<anchor name="ogonek" x="732" y="0"/>
	<anchor name="top" x="608" y="1000"/>
</glyph>
<glyph name="b" format="2">
	<unicode hex="0062"/>
	<advance width="981"/>
	<outline>
		<contour>
			<point x="42.7663574219" y="163" type="qcurve" smooth="yes"/>
			<point x="130.0484008789" y="594" type="line"/>
			<point x="288.1984863281" y="1431.9958496094" type="line"/>
			<point x="131.0775146484" y="1431.9958496094" type="line"/>
			<point x="157.2596435547" y="1513.1784667969" type="line"/>
			<point x="398.714050293" y="1554.1784667969" type="line"/>
			<point x="486.9449462891" y="1505.8450317383" type="line"/>
			<point x="292.5614624023" y="585" type="line"/>
			<point x="191.2794189453" y="100" type="line" smooth="yes"/>
			<point x="187.8227539062" y="84.5986328125"/>
			<point x="266.7263183594" y="111.1299438477"/>
			<point x="268.2942504883" y="111.1299438477" type="qcurve" smooth="yes"/>
			<point x="588.6373901367" y="111.1299438477"/>
			<point x="859.9060668945" y="416.4605102539"/>
			<point x="862.9470825195" y="612.9877319336" type="qcurve" smooth="yes"/>
			<point x="866.8064575195" y="753.9208374023"/>
			<point x="775.2293701172" y="885.4547119141"/>
			<point x="685.4520263672" y="885.4547119141" type="qcurve" smooth="yes"/>
			<point x="561.0001831055" y="885.4547119141"/>
			<point x="305.0193481445" y="703.2019042969"/>
			<point x="223.1708984375" y="594.395690918" type="qcurve"/>
			<point x="241.9445800781" y="723.7922363281" type="line"/>
			<point x="318.8585205078" y="831.6087646484"/>
			<point x="653.2890014648" y="1005.7849121094"/>
			<point x="796.5522460938" y="1005.7849121094" type="qcurve" smooth="yes"/>
			<point x="906.9776611328" y="1005.7849121094"/>
			<point x="1052.8817749023" y="861.7849121094"/>
			<point x="1050.9315795898" y="693.7849121094" type="qcurve" smooth="yes"/>
			<point x="1053.2460327148" y="426.4600830078"/>
			<point x="610.1383056641" y="-12"/>
			<point x="255.7186889648" y="-12" type="qcurve" smooth="yes"/>
			<point x="143.5697631836" y="-12"/>
			<point x="23.7663574219" y="72"/>
		</contour>
	</outline>
	<anchor name="bottom" x="571" y="0"/>
	<anchor name="top" x="571" y="1533"/>
</glyph>
<glyph name="c" format="2">
	<unicode hex="0063"/>
	<advance width="817"/>
	<outline>
		<contour>
			<point x="9.1235351562" y="492.4061279297" type="qcurve" smooth="yes"/>
			<point x="55.8803710938" y="732.4334716797"/>
			<point x="377.7734375" y="1022.8122558594"/>
			<point x="572.2063598633" y="1022.8122558594" type="qcurve" smooth="yes"/>
			<point x="693.2188720703" y="1022.8122558594"/>
			<point x="852.9008789062" y="909.5463867188"/>
			<point x="852.9008789062" y="833.1471557617" type="qcurve" smooth="yes"/>
			<point x="852.9008789062" y="770.0811157227"/>
			<point x="755.7215576172" y="687.0155029297"/>
			<point x="690.608581543" y="666.5489501953" type="qcurve"/>
			<point x="658.7367553711" y="666.5489501953" type="line"/>
			<point x="658.7367553711" y="824.5489501953" type="line" smooth="yes"/>
			<point x="658.7367553711" y="865.5489501953"/>
			<point x="598.8851928711" y="909.5489501953"/>
			<point x="531.171081543" y="908.5489501953" type="qcurve" smooth="yes"/>
			<point x="413.4950561523" y="906.5489501953"/>
			<point x="206.8860473633" y="655.0909423828"/>
			<point x="175.6622314453" y="487.4061279297" type="qcurve" smooth="yes"/>
			<point x="147.6276245117" y="329.9663696289"/>
			<point x="241.9837036133" y="127.596496582"/>
			<point x="371.7165527344" y="117.596496582" type="qcurve" smooth="yes"/>
			<point x="515.3721313477" y="105.596496582"/>
			<point x="679.7053833008" y="194.1307983398"/>
			<point x="731.1106567383" y="245.6655273438" type="qcurve"/>
			<point x="784.9999389648" y="195.5338745117" type="line"/>
			<point x="784.9999389648" y="152.4013671875" type="line"/>
			<point x="731.1387939453" y="120.6793212891"/>
			<point x="460.0853881836" y="-19"/>
			<point x="303.6017456055" y="-8" type="qcurve" smooth="yes"/>
			<point x="123.6130981445" y="3"/>
			<point x="-37.0386962891" y="258.1625976562"/>
		</contour>
	</outline>
	<anchor name="bottom" x="343" y="0"/>
	<anchor name="top" x="600" y="1000"/>
</glyph>
<glyph name="d" format="2">
	<unicode hex="0064"/>
	<advance width="1024"/>
	<outline>
		<contour>
			<point x="-43.6013183594" y="270.9460449219" type="qcurve" smooth="yes"/>
			<point x="-31.6013183594" y="538.4870605469"/>
			<point x="550.2359619141" y="971.8438720703"/>
			<point x="794.6610717773" y="995.7039794922" type="qcurve" smooth="yes"/>
			<point x="862.5120849609" y="995.7039794922" type="line"/>
			<point x="949.7310791016" y="1417.1641845703" type="line"/>
			<point x="745.4709472656" y="1438.9370117188" type="line"/>
			<point x="767.6530761719" y="1515.1196289062" type="line"/>
			<point x="1060.0818481445" y="1556.1196289062" type="line"/>
			<point x="1147.005065918" y="1554.1196289062" type="line"/>
			<point x="906.4164428711" y="469" type="line"/>
			<point x="818.6438598633" y="134.8646240234" type="line"/>
			<point x="951.5374145508" y="162.8646240234" type="line"/>
			<point x="953.5374145508" y="73" type="line"/>
			<point x="719.8521728516" y="-6" type="line"/>
			<point x="653.313659668" y="105.5129394531" type="line"/>
			<point x="677.3703613281" y="185.2015380859" type="line"/>
			<point x="658.7493896484" y="156.0660400391"/>
			<point x="246.7078857422" y="-11"/>
			<point x="187.6499633789" y="-11" type="qcurve" smooth="yes"/>
			<point x="63.4698486328" y="-11"/>
			<point x="-50.6013183594" y="125.5676269531"/>
		</contour>
		<contour>
			<point x="125.1681518555" y="272.9460449219" type="qcurve" smooth="yes"/>
			<point x="118.1681518555" y="184.0883178711"/>
			<point x="183.0977783203" y="96.530456543"/>
			<point x="263.4205322266" y="96.530456543" type="qcurve" smooth="yes"/>
			<point x="439.7714233398" y="96.530456543"/>
			<point x="700.3698120117" y="253.7319946289"/>
			<point x="747.6926879883" y="477.3975219727" type="qcurve" smooth="yes"/>
			<point x="811.2923583984" y="749.8411865234" type="line"/>
			<point x="815.9368896484" y="793.8411865234"/>
			<point x="759.837097168" y="856.9745483398"/>
			<point x="713.9425048828" y="856.9745483398" type="qcurve" smooth="yes"/>
			<point x="487.5311889648" y="856.9745483398"/>
			<point x="137.1681518555" y="502.3549804688"/>
		</contour>
	</outline>
	<anchor name="bottom" x="604" y="0"/>
	<anchor name="center" x="876" y="1202"/>
	<anchor name="top" x="704" y="1534"/>
	<anchor name="topright" x="1076" y="1000"/>
	<anchor name="liga" x="1067" y="0"/>
</glyph>
<glyph name="e" format="2">
	<unicode hex="0065"/>
	<advance width="885"/>
	<outline>
		<contour>
			<point x="1.78515625" y="484.6762695312" type="qcurve" smooth="yes"/>
			<point x="46.3527832031" y="731.0550537109"/>
			<point x="403.4158325195" y="1029.5960693359"/>
			<point x="574.336730957" y="1029.5960693359" type="qcurve" smooth="yes"/>
			<point x="724.3213500977" y="1029.5960693359"/>
			<point x="873.0572509766" y="888.2169189453"/>
			<point x="875.4383544922" y="796.0789794922" type="qcurve" smooth="yes"/>
			<point x="877.6697998047" y="755.3734130859"/>
			<point x="860.251159668" y="667.7849121094"/>
			<point x="855.6565551758" y="646.8118896484" type="qcurve"/>
			<point x="886.6565551758" y="644.8118896484" type="line"/>
			<point x="856.9241333008" y="547.9478149414" type="line"/>
			<point x="830.0162963867" y="548.9478149414"/>
			<point x="673.1399536133" y="549.5015258789"/>
			<point x="621.9507446289" y="549.9478149414" type="qcurve" smooth="yes"/>
			<point x="88.3298950195" y="551.9478149414" type="line"/>
			<point x="128.7340087891" y="645.8118896484" type="line"/>
			<point x="674.462890625" y="643.8118896484" type="line"/>
			<point x="682.0115966797" y="666.1907348633"/>
			<point x="702.8555297852" y="768.16015625"/>
			<point x="695.7465209961" y="821.0002441406" type="qcurve" smooth="yes"/>
			<point x="687.621887207" y="844.763671875"/>
			<point x="655.7222900391" y="908.4661254883"/>
			<point x="604.8988037109" y="908.4661254883" type="qcurve" smooth="yes"/>
			<point x="450.7524414062" y="908.4661254883"/>
			<point x="202.6500854492" y="658.257019043"/>
			<point x="168.9650268555" y="467.6102294922" type="qcurve" smooth="yes"/>
			<point x="141.6583862305" y="310.7491455078"/>
			<point x="266.734375" y="136.6740112305"/>
			<point x="398.0952148438" y="122.4631347656" type="qcurve" smooth="yes"/>
			<point x="604.3252563477" y="104.0833740234"/>
			<point x="741.4411621094" y="188.9779663086"/>
			<point x="811.2366943359" y="284.7802124023" type="qcurve"/>
			<point x="846.2042236328" y="235.3336181641" type="line"/>
			<point x="869.0740966797" y="207.934387207" type="line"/>
			<point x="787.5024414062" y="115.6298828125"/>
			<point x="544.6548461914" y="-22.8503417969"/>
			<point x="347.9073486328" y="-6" type="qcurve" smooth="yes"/>
			<point x="180.9727172852" y="8.3319091797"/>
			<point x="-36.4040527344" y="267.4057617188"/>
		</contour>
	</outline>
	<anchor name="bottom" x="339" y="0"/>
	<anchor name="ogonek" x="495" y="0"/>
	<anchor name="top" x="601" y="1000"/>
</glyph>
<glyph name="f" format="2">
	<unicode hex="0066"/>
	<advance width="520"/>
	<outline>
		<contour>
			<point x="-447.2643432617" y="-356" type="line" smooth="yes"/>
			<point x="-431.5554199219" y="-189.1469116211" type="line"/>
			<point x="-322.9190673828" y="-181.3740844727" type="line" smooth="yes"/>
			<point x="-119.9190673828" y="-174.8106689453"/>
			<point x="73.0505371094" y="5.8646240234"/>
			<point x="147.0505371094" y="403.8646240234" type="qcurve" smooth="yes"/>
			<point x="244.7788696289" y="927.6580810547" type="line"/>
			<point x="249.1120605469" y="953.1906738281" type="line"/>
			<point x="275.3688964844" y="1114.3547363281" type="line" smooth="yes"/>
			<point x="314.9635009766" y="1342.3547363281"/>
			<point x="531.1418457031" y="1555.3547363281"/>
			<point x="683.2289428711" y="1557.3547363281" type="qcurve" smooth="yes"/>
			<point x="746.2061767578" y="1558.3547363281"/>
			<point x="851.5211791992" y="1514.3547363281"/>
			<point x="851.5211791992" y="1486.3547363281" type="qcurve" smooth="yes"/>
			<point x="851.5211791992" y="1462.3547363281"/>
			<point x="826.5211791992" y="1430.3547363281"/>
			<point x="801.5211791992" y="1430.3547363281" type="qcurve" smooth="yes"/>
			<point x="773.296081543" y="1430.3547363281"/>
			<point x="759.5211791992" y="1453.3547363281"/>
			<point x="756.5211791992" y="1483.3547363281" type="qcurve" smooth="yes"/>
			<point x="754.5211791992" y="1431.0905761719"/>
			<point x="704.7701416016" y="1427.6248779297"/>
			<point x="671.6486816406" y="1427.6248779297" type="qcurve" smooth="yes"/>
			<point x="587.5986938477" y="1427.6248779297"/>
			<point x="441.3992919922" y="1240.3126220703"/>
			<point x="399.3358764648" y="960.7582397461" type="qcurve" smooth="yes"/>
			<point x="411.7020263672" y="960.1906738281" type="line"/>
			<point x="411.9534301758" y="938.5911865234" type="line"/>
			<point x="353.9584960938" y="653" type="line" smooth="yes"/>
			<point x="245.3895263672" y="101"/>
			<point x="-42.9647827148" y="-392"/>
			<point x="-308.4008178711" y="-392" type="qcurve"/>
		</contour>
		<contour>
			<point x="52.2408447266" y="890.4591064453" type="line"/>
			<point x="50.041015625" y="963.3905029297" type="line"/>
			<point x="276.9786987305" y="977.3905029297" type="line"/>
			<point x="645.1530761719" y="984.3905029297" type="line"/>
			<point x="639.9532470703" y="910.4591064453" type="line"/>
			<point x="359.6763305664" y="890.4591064453" type="line"/>
			<point x="284.1890258789" y="886.4591064453" type="line"/>
		</contour>
	</outline>
	<anchor name="bottom" x="217" y="0"/>
	<anchor name="top" x="554" y="1536"/>
</glyph>
<glyph name="g" format="2">
	<unicode hex="0067"/>
	<advance width="930"/>
	<outline>
		<contour>
			<point x="-88.4884033203" y="306.9730224609" type="qcurve" smooth="yes"/>
			<point x="-87.5880126953" y="536.8106689453"/>
			<point x="366.8979492188" y="1006.3255615234"/>
			<point x="630.5462646484" y="1006.3255615234" type="qcurve" smooth="yes"/>
			<point x="690.7943115234" y="1006.3255615234"/>
			<point x="778.8441162109" y="964.3255615234"/>
			<point x="808.0921630859" y="920.3255615234" type="qcurve"/>
			<point x="864.2522583008" y="1003.3255615234" type="line"/>
			<point x="909.534362793" y="1002.3255615234" type="line"/>
			<point x="926.40625" y="794.5817260742" type="line"/>
			<point x="896.6229858398" y="630" type="line" smooth="yes"/>
			<point x="849.7047729492" y="407.3236083984"/>
			<point x="793.0820922852" y="196.5"/>
			<point x="760.6358032227" y="75.5" type="qcurve" smooth="yes"/>
			<point x="699.6358032227" y="-142.466796875"/>
			<point x="314.3206787109" y="-396.5"/>
			<point x="169.3284912109" y="-396.5" type="qcurve"/>
			<point x="32.6751708984" y="-345.5" type="line"/>
			<point x="37.4024658203" y="-276.0446777344" type="line"/>
			<point x="188.8079833984" y="-261.0444335938" type="line" smooth="yes"/>
			<point x="353.5732421875" y="-248.1309814453"/>
			<point x="543.1436157227" y="-111.3131103516"/>
			<point x="606.453918457" y="126.6370849609" type="qcurve" smooth="yes"/>
			<point x="627.1521606445" y="183.173828125" type="line"/>
			<point x="539.5051269531" y="119.248046875"/>
			<point x="304.0190429688" y="-11"/>
			<point x="183.0967407227" y="-11" type="qcurve" smooth="yes"/>
			<point x="39.5896606445" y="-11"/>
			<point x="-97.8848876953" y="152.8502197266"/>
		</contour>
		<contour>
			<point x="77.6448974609" y="304.9730224609" type="qcurve" smooth="yes"/>
			<point x="61.8929443359" y="178.7840576172"/>
			<point x="167.4222412109" y="111.9732055664"/>
			<point x="264.1995849609" y="111.9732055664" type="qcurve" smooth="yes"/>
			<point x="390.6192626953" y="111.9732055664"/>
			<point x="640.1295776367" y="260.6224975586"/>
			<point x="688.1328125" y="486.0315551758" type="qcurve" smooth="yes"/>
			<point x="762.5825195312" y="784.4178466797" type="line"/>
			<point x="748.7973632812" y="823.4178466797"/>
			<point x="652.5040283203" y="872.4178466797"/>
			<point x="578.5162353516" y="872.4178466797" type="qcurve" smooth="yes"/>
			<point x="328.3464355469" y="872.4178466797"/>
			<point x="83.4544677734" y="474.3208007812"/>
		</contour>
	</outline>
	<anchor name="bottom" x="324" y="-416"/>
	<anchor name="top" x="603" y="1000"/>
</glyph>
<glyph name="h" format="2">
	<unicode hex="0068"/>
	<advance width="1026"/>
	<outline>
		<contour>
			<point x="19.4536743164" y="-3.4871826172" type="line"/>
			<point x="-2.2899169922" y="49" type="line"/>
			<point x="129.0947265625" y="592" type="line"/>
			<point x="297.5628662109" y="1430.8193359375" type="line"/>
			<point x="105.3508300781" y="1432.8193359375" type="line"/>
			<point x="130.5329589844" y="1512.001953125" type="line"/>
			<point x="400.961730957" y="1554.001953125" type="line"/>
			<point x="486.7424926758" y="1506.412109375" type="line"/>
			<point x="289.8641967773" y="582" type="line"/>
			<point x="190.0693359375" y="100.3077392578" type="line"/>
			<point x="202.889831543" y="33.8718261719" type="line"/>
		</contour>
		<contour>
			<point x="692.9152832031" y="-6" type="line"/>
			<point x="649.9152832031" y="51" type="line"/>
			<point x="795.6204833984" y="666.2739257812" type="line" smooth="yes"/>
			<point x="816.5031738281" y="765.1096801758"/>
			<point x="825.1643676758" y="889.5272827148"/>
			<point x="740.9666137695" y="889.5272827148" type="qcurve" smooth="yes"/>
			<point x="649.8907470703" y="889.5272827148"/>
			<point x="345.1748046875" y="766.9309082031"/>
			<point x="233.9185180664" y="634.3926391602" type="qcurve"/>
			<point x="251.4151611328" y="772.7888793945" type="line"/>
			<point x="372.1579589844" y="922.0979003906"/>
			<point x="672.1567993164" y="1020.1906738281"/>
			<point x="802.2412109375" y="1020.1906738281" type="qcurve" smooth="yes"/>
			<point x="894.5575561523" y="1020.1906738281"/>
			<point x="1014.5151977539" y="907.8345947266"/>
			<point x="986.1006469727" y="787.6265258789" type="qcurve" smooth="yes"/>
			<point x="825.1359863281" y="136.0009765625" type="line"/>
			<point x="955.5749511719" y="162.0009765625" type="line"/>
			<point x="955.5749511719" y="73" type="line"/>
		</contour>
	</outline>
	<anchor name="bottom" x="420" y="0"/>
	<anchor name="center" x="347" y="1202"/>
	<anchor name="top" x="424" y="1534"/>
</glyph>
<glyph name="k" format="2">
	<unicode hex="006B"/>
	<advance width="900"/>
	<outline>
		<contour>
			<point x="512.7940063477" y="494.8278808594" type="line"/>
			<point x="116.3983764648" y="152.9744873047" type="line"/>
			<point x="130.6665039062" y="257.0111694336" type="line"/>
			<point x="721.1504516602" y="757.7926025391" type="line"/>
			<point x="767.2865600586" y="763.5127563477"/>
			<point x="720.7674560547" y="896.2907104492"/>
			<point x="661.9218139648" y="896.2907104492" type="qcurve" smooth="yes"/>
			<point x="528.9031982422" y="896.2907104492"/>
			<point x="322.5391235352" y="678.2446289062"/>
			<point x="297.7611083984" y="638.0216674805" type="qcurve"/>
			<point x="286.8526611328" y="605.5767211914" type="line"/>
			<point x="202.966796875" y="98.5641479492" type="line"/>
			<point x="216.7872924805" y="39.3333740234" type="line"/>
			<point x="32.0947265625" y="-2" type="line"/>
			<point x="10.0947265625" y="49" type="line"/>
			<point x="125.0947265625" y="570" type="line"/>
			<point x="296.5815429688" y="1421.4368896484" type="line"/>
			<point x="97.4718017578" y="1435.9370117188" type="line"/>
			<point x="123.6539306641" y="1512.1196289062" type="line"/>
			<point x="395.7309570312" y="1554.1196289062" type="line"/>
			<point x="483.7054443359" y="1505.0426025391" type="line"/>
			<point x="323.553894043" y="782.1701660156" type="line"/>
			<point x="382.45703125" y="835.0885620117"/>
			<point x="577.4237060547" y="1015.2176513672"/>
			<point x="695.9504394531" y="1015.2176513672" type="qcurve" smooth="yes"/>
			<point x="764.1553955078" y="1015.2176513672"/>
			<point x="886.2017211914" y="922.8126831055"/>
			<point x="882.049987793" y="891.5902709961" type="qcurve" smooth="yes"/>
			<point x="891.8103637695" y="739.7945556641" type="line"/>
			<point x="888.4309082031" y="731.2611083984" type="line"/>
			<point x="528.4290161133" y="507.2126464844" type="line"/>
		</contour>
		<contour>
			<point x="583.2580566406" y="594.1572265625" type="line"/>
			<point x="835.6203613281" y="164.7446289062" type="line"/>
			<point x="1016.3782958984" y="189.7446289062" type="line"/>
			<point x="1018.3782958984" y="100.7436523438" type="line"/>
			<point x="791.758605957" y="12" type="line" smooth="yes"/>
			<point x="756.6733398438" y="-6.8648071289"/>
			<point x="732.2553710938" y="9.9743652344"/>
			<point x="688.3380126953" y="62" type="qcurve" smooth="yes"/>
			<point x="458.5305786133" y="519.3966064453" type="line"/>
		</contour>
	</outline>
	<anchor name="bottom" x="448" y="0"/>
	<anchor name="top" x="578" y="1534"/>
</glyph>
<glyph name="m" format="2">
	<unicode hex="006D"/>
	<advance width="1637"/>
	<outline>
		<contour>
			<point x="46.9250488281" y="-20.3333740234" type="line"/>
			<point x="17.4891357422" y="23.205078125" type="line"/>
			<point x="127.4378662109" y="489" type="line"/>
			<point x="197.8361816406" y="871.0114746094" type="line"/>
			<point x="73.3972167969" y="873.0114746094" type="line"/>
			<point x="75.1245117188" y="971.7852783203" type="line"/>
			<point x="260.4506835938" y="1010.7852783203" type="line"/>
			<point x="334.4763793945" y="995.7852783203" type="line"/>
			<point x="335.6402587891" y="687.2778320312" type="line"/>
			<point x="320.9252929688" y="611" type="line"/>
			<point x="201.9252929688" y="78" type="line"/>
			<point x="222.9252929688" y="17" type="line"/>
		</contour>
		<contour>
			<point x="657.409362793" y="-2.2564086914" type="line"/>
			<point x="636.409362793" y="50.7435913086" type="line"/>
			<point x="789.3764038086" y="710.3826293945" type="line" smooth="yes"/>
			<point x="804.4921264648" y="776.5661621094"/>
			<point x="798.7926025391" y="888.2552490234"/>
			<point x="720.7866821289" y="888.2552490234" type="qcurve" smooth="yes"/>
			<point x="612.8236694336" y="888.2552490234"/>
			<point x="342.6940307617" y="748.348449707"/>
			<point x="256.1022338867" y="678.4525146484" type="qcurve"/>
			<point x="269.6348266602" y="805.4490966797" type="line"/>
			<point x="345.1815185547" y="903.2352294922"/>
			<point x="652.1670532227" y="1020.7852783203"/>
			<point x="764.0827636719" y="1020.7852783203" type="qcurve" smooth="yes"/>
			<point x="876.040222168" y="1020.7852783203"/>
			<point x="1004.2126464844" y="902.9131469727"/>
			<point x="972.1659545898" y="809.5288696289" type="qcurve" smooth="yes"/>
			<point x="814.8711547852" y="117.1539306641" type="line"/>
			<point x="849.742980957" y="40.3077392578" type="line"/>
		</contour>
		<contour>
			<point x="1326.9250488281" y="-15.6666870117" type="line"/>
			<point x="1248.4121704102" y="102.0513916016" type="line"/>
			<point x="1398.1740722656" y="734.9211425781" type="line" smooth="yes"/>
			<point x="1407.8282470703" y="774.2841186523"/>
			<point x="1395.6087646484" y="888.2552490234"/>
			<point x="1304.2182006836" y="888.2552490234" type="qcurve" smooth="yes"/>
			<point x="1202.1825561523" y="888.2552490234"/>
			<point x="969.3151245117" y="763.7544555664"/>
			<point x="881.5402832031" y="678.5755615234" type="qcurve"/>
			<point x="886.155090332" y="812.3822021484" type="line"/>
			<point x="961.5661010742" y="902.2565917969"/>
			<point x="1223.4660644531" y="1020.7852783203"/>
			<point x="1346.4473266602" y="1020.7852783203" type="qcurve" smooth="yes"/>
			<point x="1455.3677368164" y="1020.7852783203"/>
			<point x="1604.0607299805" y="894.294921875"/>
			<point x="1578.5020751953" y="809.7852783203" type="qcurve" smooth="yes"/>
			<point x="1418.2225952148" y="136.0009765625" type="line"/>
			<point x="1567.6615600586" y="162.0009765625" type="line"/>
			<point x="1567.6615600586" y="73" type="line"/>
		</contour>
	</outline>
	<anchor name="bottom" x="958" y="0"/>
	<anchor name="top" x="958" y="1000"/>
	<anchor name="cy_descender" x="1572" y="134"/>
</glyph>
<glyph name="n" format="2">
	<unicode hex="006E"/>
	<advance width="1003"/>
	<outline>
		<contour>
			<point x="45.0646972656" y="-10.0627441406" type="line"/>
			<point x="14.3894042969" y="40.9372558594" type="line"/>
			<point x="121.001953125" y="490" type="line"/>
			<point x="196.8361816406" y="870.4168701172" type="line"/>
			<point x="72.3972167969" y="872.4168701172" type="line"/>
			<point x="74.1245117188" y="971.1906738281" type="line"/>
			<point x="245.3224487305" y="1006.1593017578" type="line"/>
			<point x="327.0404663086" y="992.1593017578" type="line"/>
			<point x="340.5861206055" y="749.4895019531" type="line"/>
			<point x="346.2457275391" y="775.1906738281" type="line"/>
			<point x="190.3896484375" y="69.9372558594" type="line"/>
			<point x="221.0649414062" y="9.9372558594" type="line"/>
		</contour>
		<contour>
			<point x="702.6759033203" y="-6" type="line"/>
			<point x="650.5974731445" y="50" type="line"/>
			<point x="804.908996582" y="741.2747802734" type="line" smooth="yes"/>
			<point x="816.4948120117" y="796.7522583008"/>
			<point x="788.7153930664" y="873.655456543"/>
			<point x="713.8225097656" y="873.655456543" type="qcurve" smooth="yes"/>
			<point x="605.6473999023" y="873.655456543"/>
			<point x="320.151550293" y="729.4927978516"/>
			<point x="226.6881713867" y="576.5658569336" type="qcurve"/>
			<point x="234.1749267578" y="707.7725830078" type="line"/>
			<point x="315.404296875" y="869.1177368164"/>
			<point x="660.6751708984" y="1020.1906738281"/>
			<point x="793.2153930664" y="1020.1906738281" type="qcurve" smooth="yes"/>
			<point x="906.9791259766" y="1020.1906738281"/>
			<point x="1001.9295043945" y="880.0567016602"/>
			<point x="984.9195556641" y="808.1906738281" type="qcurve" smooth="yes"/>
			<point x="827.5617675781" y="136.0009765625" type="line"/>
			<point x="953.7699584961" y="160.0009765625" type="line"/>
			<point x="953.7699584961" y="71" type="line"/>
		</contour>
	</outline>
	<anchor name="bottom" x="522" y="0"/>
	<anchor name="top" x="602" y="1000"/>
	<anchor name="liga" x="1173" y="0"/>
</glyph>
<glyph name="o" format="2">
	<unicode hex="006F"/>
	<advance width="897"/>
	<outline>
		<contour>
			<point x="14.23288426" y="557.0007324219" type="qcurve" smooth="yes"/>
			<point x="63.4453764919" y="758.5653076172"/>
			<point x="382.3226347927" y="1040.7700195312"/>
			<point x="590.3763457302" y="1023.8774414062" type="qcurve" smooth="yes"/>
			<point x="789.7045317653" y="1006.7291259766"/>
			<point x="978.1912261013" y="716.6904296875"/>
			<point x="935.3093613107" y="507.2321777344" type="qcurve" smooth="yes"/>
			<point x="892.015750027" y="280.5192871094"/>
			<point x="564.1178618435" y="-25.4462890625"/>
			<point x="352.8881865505" y="-6" type="qcurve" smooth="yes"/>
			<point x="156.2910185817" y="11.2557373047"/>
			<point x="-43.2429169651" y="311.1870117188"/>
		</contour>
		<contour>
			<point x="193.437962385" y="558.4247436523" type="qcurve" smooth="yes"/>
			<point x="152.0432857322" y="406.9729795537"/>
			<point x="217.8785751779" y="108.744934082"/>
			<point x="362.9952743967" y="92.3306274414" type="qcurve" smooth="yes"/>
			<point x="526.9948815267" y="75.8101404417"/>
			<point x="735.6417281727" y="390.0460654955"/>
			<point x="756.227024885" y="511.3339233398" type="qcurve" smooth="yes"/>
			<point x="778.8305961324" y="630.4433910827"/>
			<point x="709.7216312245" y="899.9865460805"/>
			<point x="573.1429794748" y="913.9915161133" type="qcurve" smooth="yes"/>
			<point x="431.6610458811" y="927.5720825195"/>
			<point x="228.0194329289" y="684.8341917607"/>
		</contour>
	</outline>
	<anchor name="bottom" x="358" y="0"/>
	<anchor name="center" x="461" y="500"/>
	<anchor name="ogonek" x="514" y="0"/>
	<anchor name="top" x="584" y="1000"/>
	<anchor name="topright" x="663" y="1000"/>
	<anchor name="GRKtop" x="584" y="1000"/>
	<anchor name="yu_dash" x="83" y="498"/>
</glyph>
<glyph name="p" format="2">
	<unicode hex="0070"/>
	<advance width="857"/>
	<outline>
		<contour>
			<point x="-82.0650634766" y="-392.5" type="line"/>
			<point x="129.396484375" y="491" type="line"/>
			<point x="192.5560302734" y="834.9324951172" type="line"/>
			<point x="178.0688476562" y="925.7529907227" type="line"/>
			<point x="310.3767089844" y="997.1633300781" type="line"/>
			<point x="379.3511352539" y="997.1633300781" type="line"/>
			<point x="344.1235961914" y="824.4952392578" type="line"/>
			<point x="409.7502441406" y="901.49609375"/>
			<point x="624.1608886719" y="1008.1633300781"/>
			<point x="693.2592773438" y="1008.1633300781" type="qcurve" smooth="yes"/>
			<point x="828.803894043" y="1008.1633300781"/>
			<point x="915.8992919922" y="865.3480224609"/>
			<point x="922.3787841797" y="729.7313232422" type="qcurve" smooth="yes"/>
			<point x="940.3543701172" y="465.4870605469"/>
			<point x="546.5564575195" y="16"/>
			<point x="340.9551391602" y="16" type="qcurve" smooth="yes"/>
			<point x="272.8145141602" y="16"/>
			<point x="203.2442016602" y="36"/>
			<point x="179.7813110352" y="50" type="qcurve"/>
			<point x="93.248840332" y="-348.8966674805" type="line"/>
			<point x="234.5972290039" y="-349.2149047852" type="line"/>
			<point x="212.4151000977" y="-426.3975219727" type="line"/>
			<point x="-8.8341674805" y="-465.8334350586" type="line"/>
		</contour>
		<contour>
			<point x="200.7861938477" y="156.7360229492" type="line"/>
			<point x="241.1193847656" y="148.5300292969"/>
			<point x="307.0082397461" y="143.6629638672"/>
			<point x="365.6376953125" y="143.6629638672" type="qcurve" smooth="yes"/>
			<point x="552.5068359375" y="143.6629638672"/>
			<point x="756.3126831055" y="470.9000854492"/>
			<point x="738.444519043" y="651.0355224609" type="qcurve" smooth="yes"/>
			<point x="733.7501831055" y="752.342590332"/>
			<point x="701.1357421875" y="882.9664916992"/>
			<point x="610.9806518555" y="882.9664916992" type="qcurve" smooth="yes"/>
			<point x="520.1611328125" y="882.9664916992"/>
			<point x="385.15234375" y="788.1663208008"/>
			<point x="322.1909179688" y="696.0985717773" type="qcurve"/>
			<point x="279.7813110352" y="503" type="line"/>
		</contour>
	</outline>
	<anchor name="bottom" x="599" y="0"/>
	<anchor name="top" x="599" y="1000"/>
</glyph>
<glyph name="q" format="2">
	<unicode hex="0071"/>
	<advance width="906"/>
	<outline>
		<contour>
			<point x="-27.1015014648" y="282" type="qcurve" smooth="yes"/>
			<point x="-3.1015014648" y="558.2708740234"/>
			<point x="408.5152748185" y="1003.2985839844"/>
			<point x="636.8835609513" y="1003.2985839844" type="qcurve" smooth="yes"/>
			<point x="687.7595375138" y="1003.2985839844"/>
			<point x="757.1892250138" y="968.2985839844"/>
			<point x="774.8503578263" y="954.2985839844" type="qcurve"/>
			<point x="847.2168129044" y="984.2985839844" type="line"/>
			<point x="887.2937782365" y="984.2985839844" type="line"/>
			<point x="906.1400306779" y="753.9393920898" type="line"/>
			<point x="830.8390663224" y="412" type="line"/>
			<point x="673.3847206193" y="-292.8627929688" type="line"/>
			<point x="827.1421669083" y="-310.3173828125" type="line"/>
			<point x="802.9600380021" y="-385.5" type="line"/>
			<point x="579.6851356583" y="-412.8590087891" type="line"/>
			<point x="502.4670570451" y="-341.5255737305" type="line"/>
			<point x="642.4798744279" y="235" type="line"/>
			<point x="635.4798744279" y="233" type="line"/>
			<point x="545.005326088" y="128"/>
			<point x="334.6175537109" y="-11"/>
			<point x="224.8199462891" y="-11" type="qcurve" smooth="yes"/>
			<point x="108.3224487305" y="-11"/>
			<point x="-44.1015014648" y="109"/>
		</contour>
		<contour>
			<point x="145.6423339844" y="284" type="qcurve" smooth="yes"/>
			<point x="130.6423339844" y="175.8142089844"/>
			<point x="204.2235267716" y="108.8610839844"/>
			<point x="292.1493080216" y="108.8610839844" type="qcurve" smooth="yes"/>
			<point x="411.7450111466" y="108.8610839844"/>
			<point x="639.8136146622" y="253.3491210938"/>
			<point x="666.5311439591" y="401" type="qcurve" smooth="yes"/>
			<point x="758.6286781388" y="808.0187988281" type="line"/>
			<point x="740.0583656388" y="835.0187988281"/>
			<point x="655.0993812638" y="873.0187988281"/>
			<point x="602.9587562638" y="873.0187988281" type="qcurve" smooth="yes"/>
			<point x="442.9449623185" y="873.0187988281"/>
			<point x="170.6423339844" y="521.2008056641"/>
		</contour>
	</outline>
	<anchor name="bottom" x="594" y="0"/>
	<anchor name="top" x="594" y="1000"/>
</glyph>
<glyph name="r" format="2">
	<unicode hex="0072"/>
	<advance width="651"/>
	<outline>
		<contour>
			<point x="52.490234375" y="-5" type="line"/>
			<point x="25.490234375" y="52" type="line"/>
			<point x="151.6184692383" y="545" type="line"/>
			<point x="198.3244628906" y="870.1478271484" type="line"/>
			<point x="62.8854980469" y="874.0114746094" type="line"/>
			<point x="65.6127929688" y="972.7852783203" type="line"/>
			<point x="302.580078125" y="1015.7852783203" type="line"/>
			<point x="352.580078125" y="998.7852783203" type="line"/>
			<point x="317.6932983398" y="803.6502075195" type="line"/>
			<point x="346.169921875" y="737.7852783203" type="line"/>
			<point x="215.6083984375" y="127.5463867188" type="line"/>
			<point x="322.0473632812" y="153.0009765625" type="line"/>
			<point x="322.0473632812" y="65" type="line"/>
		</contour>
		<contour>
			<point x="651.5748291016" y="842.7852783203" type="line"/>
			<point x="668.5748291016" y="892.9889526367" type="line"/>
			<point x="553.7997436523" y="892.9889526367"/>
			<point x="347.697265625" y="866.0511474609"/>
			<point x="272.6195678711" y="705.3002319336" type="qcurve"/>
			<point x="273.9936523438" y="833.9580078125" type="line"/>
			<point x="230.5052490234" y="815.7760620117"/>
			<point x="553.2684936523" y="1030.7852783203"/>
			<point x="667.4152832031" y="1030.7852783203" type="qcurve" smooth="yes"/>
			<point x="728.121887207" y="1030.7852783203"/>
			<point x="773.7800292969" y="988.0160522461"/>
			<point x="773.7800292969" y="953.7852783203" type="qcurve" smooth="yes"/>
			<point x="773.7800292969" y="900.7852783203"/>
			<point x="712.9594726562" y="842.7852783203"/>
			<point x="668.5748291016" y="842.7852783203" type="qcurve" smooth="yes"/>
		</contour>
	</outline>
	<anchor name="bottom" x="282" y="0"/>
	<anchor name="top" x="486" y="1000"/>
</glyph>
<glyph name="s" format="2">
	<unicode hex="0073"/>
	<advance width="724"/>
	<outline>
		<contour>
			<point x="-42.8129882812" y="133" type="qcurve" smooth="yes"/>
			<point x="-40.8129882812" y="181"/>
			<point x="47.5859985352" y="216"/>
			<point x="105.0333862305" y="216" type="qcurve" smooth="yes"/>
			<point x="130.9052124023" y="216" type="line"/>
			<point x="127.9052124023" y="135" type="line" smooth="yes"/>
			<point x="126.9052124023" y="129.5317382812"/>
			<point x="226.5435180664" y="103.8636474609"/>
			<point x="295.9039916992" y="103.8636474609" type="qcurve" smooth="yes"/>
			<point x="370.4111938477" y="103.8636474609"/>
			<point x="522.6021118164" y="201.2807617188"/>
			<point x="525.6021118164" y="225.1654052734" type="qcurve" smooth="yes"/>
			<point x="527.6021118164" y="288.7254638672"/>
			<point x="427.8302001953" y="370.2396850586"/>
			<point x="327.7044677734" y="450.8260498047" type="qcurve" smooth="yes"/>
			<point x="210.9186401367" y="549.8161010742"/>
			<point x="119.5959472656" y="706.7910766602"/>
			<point x="123.3395385742" y="794.5076904297" type="qcurve" smooth="yes"/>
			<point x="127.0831298828" y="888.1141967773"/>
			<point x="345.5195922852" y="1027.1906738281"/>
			<point x="472.0308227539" y="1027.1906738281" type="qcurve" smooth="yes"/>
			<point x="582.4825439453" y="1027.1906738281"/>
			<point x="726.2753295898" y="951.1906738281"/>
			<point x="721.2753295898" y="890.1906738281" type="qcurve" smooth="yes"/>
			<point x="718.2753295898" y="851.1906738281"/>
			<point x="660.0444946289" y="818.1906738281"/>
			<point x="607.3521118164" y="817.1906738281" type="qcurve" smooth="yes"/>
			<point x="579.2495117188" y="817.1906738281" type="line"/>
			<point x="563.6853637695" y="927.8060913086" type="line" smooth="yes"/>
			<point x="566.6853637695" y="880.5447387695"/>
			<point x="488.8297119141" y="920.926940918"/>
			<point x="418.4216308594" y="920.926940918" type="qcurve" smooth="yes"/>
			<point x="357.9368896484" y="920.926940918"/>
			<point x="279.317199707" y="840.1567382812"/>
			<point x="277.317199707" y="805.5436401367" type="qcurve" smooth="yes"/>
			<point x="274.317199707" y="763.5764160156"/>
			<point x="355.4348144531" y="695.7399291992"/>
			<point x="444.3026123047" y="608.4118652344" type="qcurve" smooth="yes"/>
			<point x="545.4448852539" y="516.54296875"/>
			<point x="678.0364379883" y="376.2784423828"/>
			<point x="675.0364379883" y="259.8111572266" type="qcurve"/>
			<point x="675.6600341797" y="148.1730957031"/>
			<point x="442.5006713867" y="-6"/>
			<point x="248.9780883789" y="-6" type="qcurve" smooth="yes"/>
			<point x="128.7315673828" y="-7"/>
			<point x="-43.8129882812" y="66"/>
		</contour>
	</outline>
	<anchor name="bottom" x="282" y="0"/>
	<anchor name="top" x="446" y="1000"/>
</glyph>
<glyph name="t" format="2">
	<unicode hex="0074"/>
	<advance width="455"/>
	<outline>
		<contour>
			<point x="139.7653808594" y="-4" type="line"/>
			<point x="37.5344848633" y="46" type="line"/>
			<point x="136.5344848633" y="503" type="line"/>
			<point x="218.337097168" y="913.0425415039" type="line"/>
			<point x="79.0806884766" y="918.9912719727" type="line"/>
			<point x="87.4803466797" y="989.1229248047" type="line"/>
			<point x="195.9476318359" y="987.3180541992"/>
			<point x="302.6130371094" y="1289.0765380859"/>
			<point x="313.7928466797" y="1304.1906738281" type="qcurve"/>
			<point x="420.8807373047" y="1304.1906738281" type="line"/>
			<point x="438.7269287109" y="1260.1393432617" type="line"/>
			<point x="297.4749755859" y="486" type="line"/>
			<point x="238.8903808594" y="130.2281494141" type="line"/>
			<point x="402.0381469727" y="152.2281494141" type="line"/>
			<point x="402.0381469727" y="77" type="line"/>
		</contour>
		<contour>
			<point x="312.4038085938" y="936.5242919922" type="line"/>
			<point x="342.1362304688" y="1016.589050293" type="line"/>
			<point x="614.5547485352" y="1055.5881958008" type="line"/>
			<point x="610.821472168" y="952.5242919922" type="line"/>
		</contour>
	</outline>
	<anchor name="bottom" x="149" y="0"/>
	<anchor name="center" x="262" y="622"/>
	<anchor name="top" x="322" y="1179"/>
	<anchor name="topright" x="600" y="920"/>
</glyph>
<glyph name="u" format="2">
	<unicode hex="0075"/>
	<advance width="1017"/>
	<outline>
		<contour>
			<point x="742.9208374023" y="-4" type="line"/>
			<point x="673.151550293" y="111.4616699219" type="line"/>
			<point x="699.4221191406" y="315.6922607422" type="line"/>
			<point x="838.1898803711" y="912.0721435547" type="line"/>
			<point x="832.7026977539" y="979.2772827148" type="line"/>
			<point x="1002.2157592773" y="1010.3798828125" type="line"/>
			<point x="1028.8824462891" y="990.3798828125" type="line"/>
			<point x="828.4850463867" y="179" type="line"/>
			<point x="823.275390625" y="135.1373291016" type="line"/>
			<point x="935.0325927734" y="139.1373291016" type="line"/>
			<point x="936.7598876953" y="53" type="line"/>
		</contour>
		<contour>
			<point x="61.3822021484" y="272" type="qcurve" smooth="yes"/>
			<point x="202.6267089844" y="872.4697265625" type="line"/>
			<point x="72.1877441406" y="874.4697265625" type="line"/>
			<point x="73.9150390625" y="972.3798828125" type="line"/>
			<point x="264.2412109375" y="1010.3798828125" type="line"/>
			<point x="323.2412719727" y="1010.3798828125" type="line"/>
			<point x="371.4721069336" y="931.6361694336" type="line"/>
			<point x="214.7259521484" y="200.9995727539" type="line" smooth="yes"/>
			<point x="202.064453125" y="154.46484375"/>
			<point x="271.5437011719" y="119.7298583984"/>
			<point x="346.4925537109" y="119.7298583984" type="qcurve" smooth="yes"/>
			<point x="463.0369873047" y="119.7298583984"/>
			<point x="676.5572509766" y="300.209777832"/>
			<point x="776.9495239258" y="362.7498779297" type="qcurve"/>
			<point x="758.700012207" y="224.303527832" type="line"/>
			<point x="668.8846435547" y="142.0995483398"/>
			<point x="391.5694580078" y="-8"/>
			<point x="254.0307617188" y="-8" type="qcurve" smooth="yes"/>
			<point x="139.0420532227" y="-8"/>
			<point x="22.4078369141" y="107"/>
		</contour>
	</outline>
	<anchor name="bottom" x="404" y="0"/>
	<anchor name="ogonek" x="871" y="20"/>
	<anchor name="top" x="572" y="1000"/>
	<anchor name="topright" x="915" y="1000"/>
	<anchor name="cy_descender" x="1018" y="134"/>
</glyph>
<glyph name="v" format="2">
	<unicode hex="0076"/>
	<advance width="830"/>
	<outline>
		<contour>
			<point x="202.094909668" y="-8" type="line"/>
			<point x="172.6999511719" y="537.1022338867" type="line"/>
			<point x="165.8363647461" y="853.0904541016" type="line"/>
			<point x="22.4273681641" y="858.5450439453" type="line"/>
			<point x="25.1546630859" y="957.3188476562" type="line"/>
			<point x="264.3143310547" y="1009.1906738281" type="line"/>
			<point x="324.9298095703" y="1009.1906738281" type="line"/>
			<point x="322.2971191406" y="618.3696289062" type="line"/>
			<point x="331.1083374023" y="225.2358398438" type="line"/>
			<point x="328.4626464844" y="152.2711791992" type="line"/>
			<point x="329.4626464844" y="152.2711791992" type="line"/>
			<point x="401.5771484375" y="220.4998168945" type="line"/>
			<point x="654.6268920898" y="497.2055053711"/>
			<point x="716.8568725586" y="644.8581542969"/>
			<point x="720.8568725586" y="710.8876953125" type="qcurve" smooth="yes"/>
			<point x="722.8568725586" y="807.1299438477"/>
			<point x="649.2622070312" y="929.7018432617"/>
			<point x="605.2622070312" y="955.4423828125" type="qcurve" smooth="yes"/>
			<point x="633.2622070312" y="978.9979248047"/>
			<point x="711.1765136719" y="1032.4861450195"/>
			<point x="754.7637329102" y="1032.4861450195" type="qcurve" smooth="yes"/>
			<point x="787.0328369141" y="1032.4861450195"/>
			<point x="887.0633544922" y="951.38671875"/>
			<point x="887.0633544922" y="851.6076660156" type="qcurve" smooth="yes"/>
			<point x="887.0633544922" y="689.9325561523"/>
			<point x="586.4947509766" y="246.2262573242"/>
			<point x="288.7545166016" y="-8" type="qcurve"/>
		</contour>
	</outline>
	<anchor name="bottom" x="513" y="0"/>
	<anchor name="top" x="513" y="1000"/>
</glyph>
<glyph name="w" format="2">
	<unicode hex="0077"/>
	<advance width="1297"/>
	<outline>
		<contour>
			<point x="217.444152832" y="-9" type="line"/>
			<point x="162.3093261719" y="551.0897827148" type="line"/>
			<point x="141.2133789062" y="871.4168701172" type="line"/>
			<point x="-1.9986572266" y="873.4168701172" type="line"/>
			<point x="0.7286376953" y="972.1906738281" type="line"/>
			<point x="226.834777832" y="1009.1906738281" type="line"/>
			<point x="302.8322143555" y="1009.1906738281" type="line"/>
			<point x="314.5805053711" y="606.4984130859" type="line"/>
			<point x="336.2672729492" y="191.5932617188" type="line"/>
			<point x="330.7869873047" y="119.1865844727" type="line"/>
			<point x="331.7869873047" y="119.1865844727" type="line"/>
			<point x="363.8365478516" y="190.3731689453" type="line"/>
			<point x="453.8271484375" y="338.6159057617"/>
			<point x="585.1035766602" y="598.8067016602"/>
			<point x="640.7212524414" y="716.9306640625" type="qcurve"/>
			<point x="630.5752563477" y="870.5532226562" type="line"/>
			<point x="515.3131103516" y="871.9938354492" type="line"/>
			<point x="517.4995727539" y="972.1906738281" type="line"/>
			<point x="709.3981323242" y="1009.1906738281" type="line"/>
			<point x="783.4212036133" y="1009.1906738281" type="line"/>
			<point x="832.4522094727" y="589.1906738281" type="line"/>
			<point x="863.5787963867" y="184.7728271484" type="line"/>
			<point x="872.2547607422" y="120.8181762695" type="line"/>
			<point x="873.2547607422" y="120.8181762695" type="line"/>
			<point x="950.6198730469" y="174.9522705078" type="line"/>
			<point x="1128.1564941406" y="362.5640869141"/>
			<point x="1302.1853637695" y="769.1650390625"/>
			<point x="1287.3135375977" y="861.0823974609" type="qcurve" smooth="yes"/>
			<point x="1272.4417114258" y="910.2446289062"/>
			<point x="1144.5457763672" y="909.1392822266"/>
			<point x="1094.05859375" y="922.7033691406" type="qcurve" smooth="yes"/>
			<point x="1116.5714111328" y="959.2931518555"/>
			<point x="1206.2125244141" y="1019.1906738281"/>
			<point x="1258.9305419922" y="1019.1906738281" type="qcurve" smooth="yes"/>
			<point x="1318.6450195312" y="941.510925293"/>
			<point x="1411.2111206055" y="952.8829345703"/>
			<point x="1411.2111206055" y="884.6008300781" type="qcurve" smooth="yes"/>
			<point x="1411.2111206055" y="789.7309570312"/>
			<point x="1089.0654907227" y="176.8434448242"/>
			<point x="848.9497070312" y="-8" type="qcurve"/>
			<point x="727.1293945312" y="-8" type="line"/>
			<point x="670.1049804688" y="522.8024902344" type="line"/>
			<point x="670.8817749023" y="575.3443603516" type="line"/>
			<point x="669.8817749023" y="575.3443603516" type="line"/>
			<point x="662.2548217773" y="513.4646606445" type="line"/>
			<point x="603.5977783203" y="400.2254638672"/>
			<point x="457.6228027344" y="146.2391967773"/>
			<point x="341.9657592773" y="-8" type="qcurve"/>
		</contour>
	</outline>
	<anchor name="bottom" x="787" y="0"/>
	<anchor name="top" x="717" y="1000"/>
</glyph>
<glyph name="x" format="2">
	<unicode hex="0078"/>
	<advance width="657"/>
	<outline>
		<contour>
			<point x="32.1912841797" y="-4" type="qcurve"/>
			<point x="-111.5584716797" y="26" type="line"/>
			<point x="-99.3310546875" y="120.0465087891" type="line"/>
			<point x="-0.9896240234" y="121.0465087891" type="line" smooth="yes"/>
			<point x="31.2648925781" y="124.0465087891"/>
			<point x="75.2677001953" y="157.2301635742"/>
			<point x="79.1997070312" y="157.3452758789" type="qcurve" smooth="yes"/>
			<point x="82.3543701172" y="151.1960449219"/>
			<point x="220.6137084961" y="338.9393920898"/>
			<point x="325.6273803711" y="519.7018432617" type="qcurve"/>
			<point x="225.9373779297" y="886.8714599609" type="line"/>
			<point x="76.9978027344" y="868.4168701172" type="line"/>
			<point x="75.7250976562" y="975.1906738281" type="line"/>
			<point x="301.4103393555" y="1019.1906738281" type="line"/>
			<point x="369.7437744141" y="1012.1906738281" type="line"/>
			<point x="404.2985229492" y="777.7267456055" type="line"/>
			<point x="416.2133789062" y="704.9545288086" type="line"/>
			<point x="417.2133789062" y="704.9545288086" type="line"/>
			<point x="461.9555053711" y="772.5932617188" type="line" smooth="yes"/>
			<point x="543.2560424805" y="924.2827758789"/>
			<point x="547.4174194336" y="933.0686035156"/>
			<point x="562.3423461914" y="950.5061035156" type="qcurve" smooth="yes"/>
			<point x="584.1133422852" y="976.1064453125"/>
			<point x="672.5221557617" y="1025.1906738281"/>
			<point x="704.9736938477" y="1025.1906738281" type="qcurve" smooth="yes"/>
			<point x="744.6050415039" y="1025.1906738281"/>
			<point x="754.7504882812" y="983.8615112305"/>
			<point x="754.7504882812" y="953.8615112305" type="qcurve" smooth="yes"/>
			<point x="754.7504882812" y="935.8615112305"/>
			<point x="726.0796508789" y="905.1906738281"/>
			<point x="709.0796508789" y="901.1906738281" type="qcurve"/>
			<point x="700.0796508789" y="901.1906738281" type="line"/>
			<point x="692.3463745117" y="897.4493408203" type="line" smooth="yes"/>
			<point x="688.8798217773" y="886.8507080078"/>
			<point x="686.1248779297" y="906.3926391602"/>
			<point x="685.9534912109" y="906.3926391602" type="qcurve" smooth="yes"/>
			<point x="681.998046875" y="906.3926391602"/>
			<point x="624.2968139648" y="854.0590209961"/>
			<point x="582.8887939453" y="797.6927490234" type="qcurve" smooth="yes"/>
			<point x="558.0806884766" y="766.1347045898"/>
			<point x="530.0736083984" y="726.3883666992"/>
			<point x="456.5523681641" y="590.0693969727" type="qcurve"/>
			<point x="572.391784668" y="120.0009765625" type="line"/>
			<point x="760.8767700195" y="149.0009765625" type="line"/>
			<point x="762.8767700195" y="65" type="line"/>
			<point x="505.0120239258" y="-10" type="line"/>
			<point x="429.3709106445" y="15" type="line"/>
			<point x="370.0709228516" y="354.272644043" type="line"/>
			<point x="356.6629638672" y="423.4412231445" type="line"/>
			<point x="355.6629638672" y="423.4412231445" type="line"/>
			<point x="313.9083251953" y="358.3970947266" type="line"/>
			<point x="259.8756103516" y="238.8783569336"/>
			<point x="244.1462402344" y="196.2869262695"/>
			<point x="212.266784668" y="140.703125" type="qcurve" smooth="yes"/>
			<point x="172.4381103516" y="89.3702392578"/>
			<point x="71.5905151367" y="-22.1994018555"/>
		</contour>
	</outline>
	<anchor name="bottom" x="522" y="0"/>
	<anchor name="top" x="522" y="1000"/>
	<anchor name="cy_descender" x="832" y="134"/>
	<anchor name="center" x="432" y="502"/>
</glyph>
<glyph name="y" format="2">
	<unicode hex="0079"/>
	<advance width="847"/>
	<outline>
		<contour>
			<point x="-332.9263916016" y="-340.5" type="line"/>
			<point x="-322.9263916016" y="-328.5" type="line"/>
			<point x="-219.8850097656" y="-328.5" type="line" smooth="yes"/>
			<point x="-118.4519042969" y="-328.5"/>
			<point x="115.0355834961" y="-196.8679199219"/>
			<point x="195.1065673828" y="-95" type="qcurve" smooth="yes"/>
			<point x="270.5291137695" y="15" type="line"/>
			<point x="237.3006591797" y="15" type="line"/>
			<point x="240.5725097656" y="144.2427978516"/>
			<point x="189.5084838867" y="778.4168701172"/>
			<point x="170.6544189453" y="871.4168701172" type="qcurve"/>
			<point x="21.3968505859" y="873.4168701172" type="line"/>
			<point x="24.1241455078" y="972.1906738281" type="line"/>
			<point x="262.6733398438" y="1009.1906738281" type="line"/>
			<point x="323.0932617188" y="1009.1906738281" type="line"/>
			<point x="340.3223266602" y="1003.1906738281" type="line"/>
			<point x="377.1843261719" y="186.4746704102" type="line"/>
			<point x="378.9066772461" y="106.9022216797" type="line"/>
			<point x="379.9066772461" y="106.9022216797" type="line"/>
			<point x="450.8582763672" y="178.1387329102" type="line" smooth="yes"/>
			<point x="619.8455810547" y="395.9772949219"/>
			<point x="769.4995727539" y="664.2708740234"/>
			<point x="769.4995727539" y="821.0823974609" type="qcurve" smooth="yes"/>
			<point x="769.4995727539" y="880.0823974609"/>
			<point x="715.6237792969" y="958.0823974609"/>
			<point x="680.6237792969" y="978.0823974609" type="qcurve" smooth="yes"/>
			<point x="700.6237792969" y="990.0823974609"/>
			<point x="755.7520141602" y="1009.0823974609"/>
			<point x="783.4443359375" y="1009.0823974609" type="qcurve" smooth="yes"/>
			<point x="819.3161621094" y="1009.0823974609"/>
			<point x="901.0805664062" y="948.0823974609"/>
			<point x="901.0805664062" y="895.0823974609" type="qcurve" smooth="yes"/>
			<point x="901.0805664062" y="758.0823974609"/>
			<point x="600.9481811523" y="179.203918457"/>
			<point x="353.4274291992" y="-51.9991455078" type="qcurve" smooth="yes"/>
			<point x="288.1745605469" y="-130.9991455078" type="line" smooth="yes"/>
			<point x="101.6025390625" y="-327.8709106445"/>
			<point x="-125.047668457" y="-398.5"/>
			<point x="-194.8850097656" y="-398.5" type="qcurve"/>
		</contour>
	</outline>
	<anchor name="bottom" x="782" y="0"/>
	<anchor name="top" x="504" y="1000"/>
</glyph>
<glyph name="z" format="2">
	<unicode hex="007A"/>
	<advance width="576"/>
	<outline>
		<contour>
			<point x="-64.200012207" y="-13.7997436523" type="line"/>
			<point x="-142.998046875" y="61.5982055664" type="line"/>
			<point x="-77.8062133789" y="122.9313964844"/>
			<point x="176.2341918945" y="456.3056640625"/>
			<point x="265.2122802734" y="572.8732910156" type="qcurve" smooth="yes"/>
			<point x="334.9132080078" y="666.8732910156"/>
			<point x="459.255065918" y="819.4163818359"/>
			<point x="491.9031982422" y="846.805847168" type="qcurve"/>
			<point x="215.866394043" y="845.8314819336" type="line"/>
			<point x="179.0541381836" y="822.1950683594" type="line"/>
			<point x="76.438659668" y="824.1950683594" type="line"/>
			<point x="128.9176635742" y="990.1906738281" type="line"/>
			<point x="144.9176635742" y="1009.1906738281" type="line"/>
			<point x="715.6132202148" y="1009.1906738281" type="line"/>
			<point x="724.8130493164" y="954.5251464844" type="line"/>
			<point x="688.6911010742" y="901.5251464844"/>
			<point x="470.9038085938" y="613.08203125"/>
			<point x="400.0504150391" y="514.4874267578" type="qcurve" smooth="yes"/>
			<point x="317.9585571289" y="402.9197998047"/>
			<point x="176.0582885742" y="232.5269775391"/>
			<point x="116.2349853516" y="210.2602539062" type="qcurve"/>
			<point x="466.0694580078" y="158.4603271484" type="line"/>
			<point x="472.0341186523" y="154.0509033203" type="line"/>
			<point x="560.8839111328" y="129.3065795898" type="line"/>
			<point x="499.7652587891" y="0" type="line"/>
			<point x="470.7652587891" y="-19" type="line"/>
			<point x="39.0240478516" y="69.0668945312" type="line"/>
		</contour>
	</outline>
	<anchor name="bottom" x="443" y="0"/>
	<anchor name="top" x="463" y="1000"/>
	<anchor name="_liga" x="0" y="0"/>
</glyph>
